<svg id="Layer_1" data-name="Layer 1" xmlns="http://www.w3.org/2000/svg" width="863.23075" height="115.7776" viewBox="0 0 863.23075 115.7776"><g id="Layer_2" data-name="Layer 2"><g id="Layer_3" data-name="Layer 3"><path d="M188.14078,15.78756a42.11,42.11,0,1,1-42.12,42.11,42.10581,42.10581,0,0,1,42.12-42.11m-.01-15.77a57.88,57.88,0,1,0,57.89,57.88,57.8752,57.8752,0,0,0-57.89-57.88Z"/><path d="M403.02079,3.43756a1.54371,1.54371,0,0,0-1.32.74l-59.63,80.58-59.62-80.58a1.57494,1.57494,0,0,0-2.91.8v107.38h15.76v-63.41l45.85,61.5a1.18093,1.18093,0,0,0,.92.44h0a1.26848,1.26848,0,0,0,.93-.44l45.84-61.5v63.41h15.77V5.01756a1.56627,1.56627,0,0,0-1.56-1.58Z"/><path d="M464.29078,73.30759v39.05h-15.77V3.43756"/><path d="M501.02079,3.43756h-52.5v108.92h15.77v-39h36.73a34.94,34.94,0,1,0,1.18-69.87c-.39-.01-.79-.01-1.18,0Zm0,54.11h-36.73v-38.35h36.73a19.17994,19.17994,0,0,1,.87,38.35Q501.45577,57.56258,501.02079,57.54758Z"/><path d="M91.19079,83.62759a42.11314,42.11314,0,1,1,0-51.47l11.32-11.14a57.88279,57.88279,0,1,0,0,73.73Z"/><path d="M717.1608,114.2876c-18.24,0-31-10.09-38.45-18.55l11.11-10.85c2.79,3.61,12.14,14,27.34,14,14.2,0,24.12-7.15,24.12-17.38,0-8.76-6-14.64-18.21-18l-13.28-3c-28.42-7-28.42-24-28.42-29.58,0-17.59,14.21-29.41,35.35-29.41,13.88,0,25.7,5.28,36.12,16.15l-11.11993,10.84c-2.85-3-12.19-11.61-25-11.61-12.45,0-19.59,5.11-19.59,14,0,2.66,1,11.53,14,14.32l12.09,2.72c22.12,5.2,33.8,16.81,33.8,33.57C757.02079,100.1976,739.90079,114.2876,717.1608,114.2876Z"/><path d="M823.32078,114.2876c-18.23,0-31-10.09-38.45-18.55l11.15-10.85c2.79,3.61,12.14,14,27.33,14,14.21,0,24.13-7.15,24.13-17.38,0-8.76-6-14.64-18.21-18l-13.29-3c-28.42-7-28.42-24-28.42-29.58,0-17.59,14.21-29.41,35.36-29.41,13.88,0,25.69,5.28,36.11,16.15l-11.14,10.84c-2.85-3-12.2-11.61-25-11.61-12.45,0-19.59,5.11-19.59,14,0,2.66,1,11.53,14,14.32l12.08,2.72c22.14,5.19,33.85,16.8,33.85,33.56C863.21079,100.1976,846.02079,114.2876,823.32078,114.2876Z"/><rect x="160.86727" y="50.00624" width="54.52949" height="15.76985" transform="translate(14.16737 149.98539) rotate(-45.00001)"/><path d="M601.68076,3.37756a1.58825,1.58825,0,0,0-2.88,0l-57.48,109h17.83l14.72-27.92h52.74l14.72,27.92h17.84Zm-19.49,65.29,18.05-34.24,18.06,34.24Z"/></g></g></svg>