<svg xmlns="http://www.w3.org/2000/svg" viewBox="0 0 48 48"><path fill="#fffc00" stroke="#111" stroke-width="1.6" d="M24 6c6 0 10 4.8 10 11.4 0 1.5-.2 3.4-.1 4.3.3.5 2 1 3.1 1.4 1.4.5 1.9 1.6.5 2.6-1 .7-2.2 1-3.3 1.4.4 1.2 1.6 3.7 5.2 5.1 1.4.5 1.1 2.4-.4 2.7-1.6.4-3.2.5-4.6 1.8-1.2 1.1-2.3 2.5-4.7 1.9-1.8-.4-3.2-1.5-5.7-1.5s-3.9 1.1-5.7 1.5c-2.4.6-3.5-.8-4.7-1.9-1.4-1.3-3-1.4-4.6-1.8-1.5-.3-1.8-2.2-.4-2.7 3.6-1.4 4.8-3.9 5.2-5.1-1.1-.4-2.3-.7-3.3-1.4-1.4-1-.9-2.1.5-2.6 1.1-.4 2.8-.9 3.1-1.4.1-.9-.1-2.8-.1-4.3C14 10.8 18 6 24 6z"/></svg>
