<svg xmlns="http://www.w3.org/2000/svg" viewBox="0 0 48 48"><path fill="#25f4ee" d="M21 16v17.5a5.8 5.8 0 1 1-5.8-5.8c.6 0 1.2.1 1.8.3v-6a12 12 0 1 0 10 11.8V19.6c2.5 2 5.3 3 8.7 3v-5.8c-3.5-.2-6.5-2.4-7.7-5.8h-7z"/><path fill="#fe2c55" d="M24 14v17.5a5.8 5.8 0 0 1-9 4.9 5.8 5.8 0 0 0 10-4V17.9c2.5 2 5.3 3 8.7 3v-2.1c-3.1-.7-5.6-2.8-6.7-5.8h-3z"/><path fill="#111" d="M22.5 12v19.8a4.3 4.3 0 1 1-4.3-4.3c.5 0 1 .1 1.4.2v-5.4a9.6 9.6 0 1 0 8.3 9.5V20.2a13.3 13.3 0 0 0 7.8 2.4v-5.4c-3.3-.2-6-2.3-7.2-5.2z"/></svg>
