<svg xmlns="http://www.w3.org/2000/svg" xmlns:xlink="http://www.w3.org/1999/xlink" viewBox="0 0 24 24" data-source-page="category"><svg xmlns="http://www.w3.org/2000/svg" viewBox="0 0 20 20"><path d="M18.3197 8.0919C18.1602 8.10752 18.0006 8.11586 17.8411 8.11707C16.0897 8.11707 14.456 7.20972 13.4953 5.70265V13.9239C13.4953 17.2792 10.8495 20 7.58434 20C4.31915 20 1.67578 17.2792 1.67578 13.9239C1.67578 10.5685 4.32147 7.8477 7.58667 7.8477C7.71011 7.8477 7.83121 7.85968 7.95232 7.86688V10.8607C7.83121 10.8463 7.71127 10.8224 7.58667 10.8224C5.92031 10.8224 4.57067 12.2109 4.57067 13.9227C4.57067 15.6356 5.92147 17.023 7.58667 17.023C9.25305 17.023 10.725 15.6739 10.725 13.961L10.754 0H13.5407C13.8038 2.56883 15.8184 4.57505 18.3243 4.76298V8.09076"></path></svg></svg>