<svg xmlns="http://www.w3.org/2000/svg" xmlns:xlink="http://www.w3.org/1999/xlink" viewBox="0 0 24 24" data-source-page="category"><svg xmlns="http://www.w3.org/2000/svg" fill="none" viewBox="0 0 127 32"><path fill="#F7AF31" d="M126.7 6.91231C126.7 3.0266 124.524 0.0315247 122.026 0.0315247C119.535 0.0315247 117.352 3.03448 117.352 6.91231C117.352 10.2699 118.983 12.3429 121.033 12.8473C121.017 13.6591 120.875 21.3202 120.103 29.7379C120.103 29.7379 120.78 30.0217 122.073 30.0217C123.366 30.0217 124.272 29.7379 124.272 29.7379C123.523 22.2975 123.2 15.1172 123.121 13.1704C123.121 13.1547 122.885 13.2414 122.554 13.1468C122.278 13.0759 122.128 12.9655 122.144 12.9655C122.16 12.9655 122.175 12.9655 122.191 12.9655C122.459 12.9655 122.743 12.9103 122.924 12.8709C122.932 12.8709 122.94 12.8709 122.948 12.8631C123.05 12.8394 123.113 12.8236 123.113 12.8236C125.123 12.2719 126.7 10.2148 126.7 6.91231Z"></path><path fill="#F15025" fill-rule="evenodd" d="M0.0393066 23.7635C0.0393066 20.8236 2.08857 19.7123 4.6265 19.0581L8.81172 18.0256V17.868C8.81172 16.3783 7.85014 15.8502 5.95852 15.8502C4.38216 15.8502 2.87674 16.2207 1.19793 16.7094L1.49743 12.9497C3.22354 12.4138 5.10729 12.0039 7.21172 12.0039C11.1447 12.0039 13.1309 13.3911 13.1309 17.2296V27.3025H8.81172V25.4818C7.51911 27.0424 5.72995 27.6493 4.09054 27.6493C1.97034 27.6493 0.0393066 26.6089 0.0393066 23.7635ZM4.51615 23.1488C4.51615 24.1655 5.20187 24.5754 6.04522 24.5754C6.90433 24.5754 7.95261 24.1182 8.80384 23.3773V20.2798L7.67674 20.6108C5.52502 21.2098 4.51615 21.9192 4.51615 23.1488Z" clip-rule="evenodd"></path><path fill="#F15025" d="M15.3931 7.21181V27.3025H19.7202V6.72314L15.3931 7.21181ZM22.1399 7.21181V27.3025H26.4749V6.72314L22.1399 7.21181ZM28.8945 12.6424V27.2946H33.2295V18.3882C34.798 17.3872 36.6896 17.1113 38.3133 17.1901L38.5418 12.0434C35.7201 12.0434 34.2857 13.1941 33.2295 17.0246V12.1379L28.8945 12.6424Z"></path><path fill="#F15025" fill-rule="evenodd" d="M52.8394 15.8187L53.1153 16.4965C53.4778 17.3635 53.0916 18.1438 52.2325 18.53L44.1301 22.3054C44.8315 23.0699 45.935 23.535 47.5035 23.535C49.0956 23.535 51.4207 23.0699 53.1547 21.7537L52.8709 26.0493C51.7517 26.7901 49.7655 27.6414 46.999 27.6414C41.9468 27.6414 39.0542 24.5202 39.0542 19.7675C39.0542 14.3054 42.9478 11.996 46.7468 11.996C50.002 11.9803 51.9803 13.6827 52.8394 15.8187ZM46.8177 15.4089C44.8709 15.4089 43.1448 16.6069 43.1448 19.3892C43.1448 19.4532 43.1469 19.5173 43.1489 19.5803C43.1508 19.6414 43.1527 19.7014 43.1527 19.7596L49.3242 16.8827C48.8907 16.0552 48.2049 15.4089 46.8177 15.4089Z" clip-rule="evenodd"></path><path fill="#F15025" d="M62.3448 15.8502C63.5113 15.8502 64.6699 16.2364 65.5054 16.6699V12.5635C64.2364 12.1695 62.7389 12.0039 61.5645 12.0039 56.6463 12.0039 54.0847 15.0778 54.0847 19.8227 54.0847 24.5596 56.6463 27.6414 61.5724 27.6414 62.7862 27.6414 64.3704 27.4128 65.8601 26.8532V22.7941C64.7803 23.2906 63.5428 23.6926 62.3527 23.6926 60.0827 23.6926 58.4276 22.463 58.4276 19.8069 58.4276 17.1665 60.0827 15.8502 62.3448 15.8502ZM67.6492 27.3025H71.9841V12.1537L67.6492 12.6424V27.3025ZM69.8008 5.85616C68.0668 5.85616 66.9949 6.90443 66.9949 8.36256 66.9949 9.84433 68.0589 10.8926 69.8008 10.8926 71.5348 10.8926 72.5515 9.84433 72.5515 8.36256 72.5594 6.90443 71.5348 5.85616 69.8008 5.85616Z"></path><path fill="#F15025" fill-rule="evenodd" d="M74.4038 31.9842V12.6424L78.7388 12.1458V13.9744C79.7792 12.934 81.2137 12.0039 83.2629 12.0039 86.392 12.0039 88.6777 14.203 88.6777 19.1921 88.6777 24.7566 85.3989 27.6493 81.0797 27.6493 80.1811 27.6493 79.4009 27.5074 78.7388 27.3025V31.9842H74.4038ZM84.1378 19.6414C84.1536 17.4975 83.4284 15.5586 80.9851 15.5586 80.0866 15.5586 79.3614 15.8424 78.7388 16.2364V24.0709C79.1802 24.1655 79.6688 24.2207 80.1969 24.2207 82.8846 24.2207 84.1457 22.534 84.1378 19.6414ZM103.558 15.8187 103.834 16.4965C104.197 17.3635 103.811 18.1438 102.952 18.53L94.8491 22.3054C95.5505 23.0699 96.654 23.535 98.2225 23.535 99.8146 23.535 102.14 23.0699 103.874 21.7537L103.59 26.0493C102.471 26.7901 100.485 27.6414 97.718 27.6414 92.6658 27.6414 89.7732 24.5202 89.7732 19.7675 89.7732 14.3054 93.6668 11.996 97.4658 11.996 100.721 11.9803 102.699 13.6827 103.558 15.8187ZM97.5367 15.4089C95.5899 15.4089 93.8638 16.6069 93.8638 19.3892 93.8638 19.4532 93.8659 19.5173 93.8679 19.5803 93.8698 19.6414 93.8717 19.7014 93.8717 19.7596L100.043 16.8827C99.6096 16.0552 98.9239 15.4089 97.5367 15.4089Z" clip-rule="evenodd"></path><path fill="#F15025" d="M109.226 16.6542C109.226 15.7163 110.51 15.4798 111.748 15.4798C112.961 15.4798 114.427 15.6768 116.185 16.4571L116.067 12.8473C114.971 12.3586 113.505 12.0039 111.629 12.0039C106.829 12.0039 105.261 14.3133 105.261 16.7803C105.261 22.7862 112.686 20.3586 112.686 22.7941C112.686 23.7872 111.606 24.0158 110.55 24.0158C108.429 24.0158 106.656 23.4089 105.237 22.597L104.985 26.4118C106.475 27.1685 108.445 27.6414 110.542 27.6414C115.153 27.6414 116.918 25.3793 116.918 22.4552C116.934 16.6463 109.226 18.9163 109.226 16.6542Z"></path></svg></svg>