<svg xmlns="http://www.w3.org/2000/svg" xmlns:xlink="http://www.w3.org/1999/xlink" viewBox="0 0 24 24" data-source-page="category"><svg xmlns="http://www.w3.org/2000/svg" viewBox="0 0 24 24"><path fill="#000" d="M23.5 6.38165C23.5 6.38165 23.5 6.37775 23.5 6.37541C23.4976 5.52245 23.3343 4.69443 23.0147 3.91086C22.6943 3.12416 22.2326 2.42245 21.6423 1.82522C21.0489 1.22409 20.356 0.760185 19.5826 0.445195C18.8574 0.149698 18.0943 0 17.3146 0C17.2649 0 17.2151 0 17.1646 0.00155935C16.1798 0.00935612 15.2257 0.226886 14.3292 0.648691C13.4351 1.06972 12.6514 1.66773 12.0004 2.42791C11.3485 1.66773 10.5657 1.06894 9.67159 0.648691C8.77432 0.226886 7.82023 0.00935612 6.83536 0.00155935C6.78564 0 6.73513 0 6.68542 0C5.90573 0 5.14261 0.149698 4.41738 0.445195C3.644 0.760185 2.95112 1.22409 2.35768 1.82522C1.76739 2.42245 1.30573 3.12416 0.985332 3.91086C0.665723 4.69365 0.502367 5.52245 0.5 6.3723C0.5 6.37541 0.5 6.37853 0.5 6.38165V9.00994C0.5 9.00994 0.5 9.00994 0.5 9.01072C0.5 9.01072 0.5 9.01228 0.5 9.01306V9.05672C0.512627 11.087 1.34045 13.0128 3.18077 15.2949L3.19261 15.3097L3.20523 15.3245C5.41093 17.8398 7.80444 20.2193 10.3195 22.3962L11.3375 23.3778L11.9822 24L12.6428 23.3942L13.6695 22.4531C16.1837 20.27 18.5804 17.8889 20.7916 15.3752L20.809 15.3557L20.8255 15.3347C22.6611 12.9941 23.4874 11.0558 23.4984 9.05672V6.38165H23.5Z"></path><path d="M17.1805 0.937167C16.3376 0.942625 15.5043 1.13209 14.7356 1.49308C13.967 1.85485 13.2804 2.38035 12.7193 3.03606L11.9996 3.89604L11.2799 3.03606C10.7188 2.38035 10.0315 1.85485 9.26284 1.49308C8.4942 1.13131 7.66164 0.941845 6.81882 0.937167C6.1212 0.918455 5.42753 1.04554 4.77727 1.30985C4.12779 1.57416 3.53513 1.9718 3.03481 2.47859C2.53448 2.98538 2.13596 3.59041 1.8637 4.26015C1.59065 4.92911 1.44939 5.64875 1.44702 6.37541C1.44702 8.19439 2.20461 9.94399 3.92182 12.0733C6.11173 14.5714 8.465 16.9096 10.9635 19.0709L11.9996 20.0704L13.0358 19.1208C15.5311 16.9556 17.8836 14.6174 20.0774 12.1232C21.7947 9.93385 22.553 8.18426 22.553 6.37541C22.5507 5.64875 22.4086 4.92911 22.1364 4.26015C21.8641 3.59119 21.4656 2.98538 20.9645 2.47859C20.4641 1.9718 19.8715 1.57494 19.222 1.30985C18.5725 1.04554 17.8781 0.918455 17.1805 0.937167Z"></path></svg></svg>