<svg xmlns="http://www.w3.org/2000/svg" xmlns:xlink="http://www.w3.org/1999/xlink" viewBox="0 0 24 24" data-source-page="category"><svg xmlns="http://www.w3.org/2000/svg" viewBox="0 0 20 20"><path fill-rule="evenodd" d="M17.8139 3.37527C18.6744 3.60675 19.352 4.28879 19.582 5.15493C20 6.7247 20 10 20 10C20 10 20 13.2753 19.582 14.8453C19.352 15.7113 18.6744 16.3933 17.8139 16.6249C16.2542 17.0455 10 17.0455 10 17.0455C10 17.0455 3.7458 17.0455 2.18614 16.6249C1.32568 16.3933 0.647955 15.7113 0.417955 14.8453C0 13.2753 0 10 0 10C0 10 0 6.7247 0.417955 5.15493C0.647955 4.28879 1.32568 3.60675 2.18614 3.37527C3.7458 2.95459 10 2.95459 10 2.95459C10 2.95459 16.2542 2.95459 17.8139 3.37527ZM13.1814 10.0001L7.9541 12.9737V7.02625L13.1814 10.0001Z" clip-rule="evenodd"></path></svg></svg>