<svg xmlns="http://www.w3.org/2000/svg" xmlns:xlink="http://www.w3.org/1999/xlink" viewBox="0 0 24 24" data-source-page="category"><svg xmlns="http://www.w3.org/2000/svg" viewBox="0 0 20 20"><path d="M4.33525 2.18534C6.6282 3.90678 9.0944 7.39722 10 9.27018C10.9056 7.39722 13.3718 3.90678 15.6648 2.18534C17.3192 0.943246 20 -0.0178306 20 3.04037C20 3.65111 19.6498 8.17109 19.4444 8.90497C18.7305 11.4561 16.1291 12.1068 13.815 11.713C17.8599 12.4014 18.8889 14.6817 16.6667 16.962C12.4462 21.2927 10.6007 15.8754 10.1279 14.4873C10.0412 14.2328 10.0006 14.1138 10 14.215C9.9994 14.1138 9.95884 14.2328 9.87215 14.4873C9.39926 15.8754 7.55377 21.2927 3.33333 16.962C1.11111 14.6817 2.14006 12.4014 6.18497 11.713C3.87088 12.1068 1.26949 11.4561 0.555556 8.90497C0.350185 8.17109 0 3.65111 0 3.04037C0 -0.0178306 2.68079 0.943246 4.33525 2.18534Z"></path></svg></svg>