<svg xmlns="http://www.w3.org/2000/svg" xmlns:xlink="http://www.w3.org/1999/xlink" viewBox="0 0 24 24" data-source-page="category"><svg xmlns="http://www.w3.org/2000/svg" viewBox="0 0 20 20"><path fill-rule="evenodd" d="M2.25879 7.17548C2.25879 9.15257 3.00571 10.9101 4.61085 11.5648C4.87352 11.6721 5.11013 11.5688 5.18533 11.278C5.23946 11.0765 5.36379 10.5672 5.41993 10.3557C5.49713 10.0669 5.46805 9.96667 5.25551 9.71502C4.79231 9.16961 4.49755 8.46279 4.49755 7.46222C4.49755 4.55974 6.66915 1.96005 10.1531 1.96005C13.2371 1.96005 14.9334 3.8449 14.9334 6.36339C14.9334 9.67592 13.4667 12.4711 11.29 12.4711C10.088 12.4711 9.18964 11.4766 9.47738 10.2574C9.82327 8.80267 10.491 7.23263 10.491 6.18192C10.491 5.2415 9.98769 4.45648 8.943 4.45648C7.71384 4.45648 6.72629 5.72775 6.72629 7.43013C6.72629 8.51493 7.09324 9.24782 7.09324 9.24782C7.09324 9.24782 5.836 14.5755 5.61543 15.5079C5.1763 17.3657 5.54926 19.6436 5.58135 19.8742C5.59939 20.0095 5.77484 20.0426 5.85505 19.9393C5.96734 19.791 7.43011 17.9843 7.92839 16.1797C8.06875 15.6694 8.73647 13.0215 8.73647 13.0215C9.1365 13.7835 10.3025 14.4542 11.5427 14.4542C15.2362 14.4542 17.7417 11.0876 17.7417 6.58095C17.7417 3.17317 14.8552 0 10.4689 0C5.00987 0 2.25879 3.91308 2.25879 7.17548Z" clip-rule="evenodd"></path></svg></svg>