<svg xmlns="http://www.w3.org/2000/svg" xmlns:xlink="http://www.w3.org/1999/xlink" viewBox="0 0 24 24" data-source-page="home"><svg xmlns="http://www.w3.org/2000/svg" viewBox="0 0 20 19"><path d="M14.32 1.668a4.866 4.866 0 0 0-2.038.463c-.64.302-1.212.74-1.68 1.286l-.6.717-.6-.717a5.038 5.038 0 0 0-1.68-1.286 4.842 4.842 0 0 0-2.037-.463 4.214 4.214 0 0 0-1.701.31 4.343 4.343 0 0 0-1.452.975 4.552 4.552 0 0 0-.976 1.484A4.709 4.709 0 0 0 1.208 6.2c0 1.516.632 2.974 2.063 4.748a60.049 60.049 0 0 0 5.868 5.832l.863.832.864-.79a61.466 61.466 0 0 0 5.868-5.832c1.43-1.825 2.063-3.283 2.063-4.79a4.722 4.722 0 0 0-.348-1.763 4.55 4.55 0 0 0-.976-1.484 4.352 4.352 0 0 0-1.452-.974 4.213 4.213 0 0 0-1.701-.31Z"></path><path fill="#000" fill-rule="evenodd" d="M12.282 2.131c.64-.3 1.335-.458 2.037-.463.582-.015 1.16.09 1.702.31.541.222 1.035.552 1.452.975.418.422.75.927.977 1.484.226.558.345 1.157.347 1.763 0 1.507-.632 2.965-2.063 4.79a61.456 61.456 0 0 1-5.868 5.831l-.864.791-.863-.832a60.05 60.05 0 0 1-5.868-5.832C1.84 9.174 1.208 7.716 1.208 6.2c.002-.606.12-1.205.348-1.763a4.552 4.552 0 0 1 .975-1.484c.417-.423.911-.754 1.453-.974a4.214 4.214 0 0 1 1.7-.31 4.842 4.842 0 0 1 2.038.462c.64.302 1.213.74 1.68 1.286l.6.717.6-.717a5.037 5.037 0 0 1 1.68-1.286Zm-2.28.706a5.867 5.867 0 0 1 1.925-1.46 5.702 5.702 0 0 1 2.379-.542 5.045 5.045 0 0 1 2.029.372 5.185 5.185 0 0 1 1.73 1.16 5.382 5.382 0 0 1 1.156 1.756c.268.657.407 1.362.409 2.074V6.2c0 1.772-.755 3.41-2.24 5.304l-.015.019-.016.017a62.298 62.298 0 0 1-5.939 5.903l-1.432 1.313-1.412-1.361a60.888 60.888 0 0 1-5.932-5.897l-.011-.013-.011-.014C1.129 9.62.375 7.981.375 6.2v-.003c.002-.71.14-1.417.409-2.074a5.385 5.385 0 0 1 1.154-1.756 5.176 5.176 0 0 1 1.731-1.16A5.05 5.05 0 0 1 5.7.835a5.676 5.676 0 0 1 2.377.542 5.87 5.87 0 0 1 1.926 1.46Z" clip-rule="evenodd"></path></svg></svg>