<svg xmlns="http://www.w3.org/2000/svg" xmlns:xlink="http://www.w3.org/1999/xlink" viewBox="0 0 24 24" data-source-page="category"><svg xmlns="http://www.w3.org/2000/svg" fill="none" viewBox="0 0 159 32"><path fill="var(--myr-my-color, #FF3FA4)" d="M20.896 25.227H31.05c-2.156-2.44-1.718-5.974-1.755-8.662-.022-1.54.214-5.918-.34-7.338-.265-.679-1.394-2.503-4.024-2.371-3.17.162-5.83 3.019-5.83 3.019s-.278-3.175-3.83-3.022c-3.322.143-6.19 3.293-6.19 3.293v-3.03L.448 7.68v17.537h8.62v-9.275c0-.515 0-1.63.016-1.667.054-.641.264-1.3 1.038-1.203.818.1.803 1.247.803 2.214v9.94h8.138V15.109c0-.659-.117-2.177 1.034-2.036.818.1.802 1.247.802 2.214l-.004 9.94Z"></path><path fill="currentColor" d="M64.16 6.87v7.946c-2.01-.243-4.158-.207-6.064.621v9.778h-6.722V7.594l6.722-.688v6.806c1.212-5.634 2.252-6.913 6.064-6.843ZM75.529 19.929c2.217 0 4.504-.933 6.513-2.35l-.52 6.254c-1.35.864-3.673 1.797-7.132 1.797-5.821 0-9.875-3.49-9.875-9.398 0-6.53 4.816-9.433 9.529-9.433 3.95-.034 6.583 1.867 7.692 4.562l.416 1c.519 1.28.034 2.455-1.213 3.008l-8.39 3.8c.762.483 1.731.76 2.98.76Zm-4.888-4.492v.345l5.751-2.59c-.449-.726-1.108-1.318-2.39-1.318-1.696.004-3.36 1.007-3.36 3.563ZM82.685 16.197c0-5.596 2.876-9.398 9.598-9.398 2.08 0 3.86.581 4.799 1.054l-.013 5.853c-.867-.415-2.36-1.003-3.955-1.003-2.246 0-3.707 1.07-3.707 3.489 0 2.418 1.453 3.352 3.707 3.352 1.594 0 2.617-.413 3.963-.897l-.014 6.128c-1.144.483-2.499.85-4.785.85-7.099.005-9.593-3.796-9.593-9.428ZM97.751 3.766c0-2.212 1.593-3.766 4.123-3.766 2.529 0 4.017 1.554 4.017 3.766 0 2.177-1.49 3.766-4.02 3.766-2.53 0-4.12-1.589-4.12-3.766Zm.692 4.684 6.723-.725v17.49h-6.722V8.45ZM124.647 15.467c0 6.808-3.81 10.158-8.904 10.158a9.196 9.196 0 0 1-2.356-.275v5.532h-6.729V7.593l6.515-.69v2.004c1.074-1.037 2.529-2.108 4.92-2.108 3.707 0 6.554 2.591 6.554 8.668Zm-7 .79c0-1.52-.209-4.007-3.153-4.007a5.304 5.304 0 0 0-1.11.102v8.155h.521c3.213.01 3.702-1.926 3.742-4.24v-.01ZM136.139 19.929c2.218 0 4.505-.726 6.514-2.098l.008 5.965c-1.352.82-4.201 1.834-7.662 1.834-5.821 0-9.875-3.49-9.875-9.398 0-6.53 4.816-9.433 9.529-9.433 3.95-.034 6.584 1.867 7.692 4.562l.416 1c.52 1.28.034 2.455-1.213 3.008l-8.385 3.8c.755.483 1.724.76 2.976.76Zm-4.887-4.492v.345l5.753-2.59c-.451-.726-1.11-1.318-2.393-1.318-1.7.004-3.36 1.007-3.36 3.563ZM158.149 12.95a21.57 21.57 0 0 0-6.167-.9c-.66 0-1.87.036-1.87.66 0 .76 1.801.658 3.846.966 2.806.415 4.989 1.382 4.989 5.321 0 3.524-1.94 6.634-8.524 6.634a17.02 17.02 0 0 1-6.504-1.338l-.01-5.84c2.01 1.098 4.124 1.685 6.376 1.685 1.524 0 2.356-.276 2.356-.83 0-.691-1.321-.76-3.084-.968-2.46-.275-5.648-.898-5.648-5.32 0-3.178 1.663-6.22 8.177-6.22 2.391 0 4.297.381 5.68 1.037l.383 5.112Z"></path><path fill="var(--myr-my-color, #FF3FA4)" d="M49.72 7.331h-8.572v9.86c0 .658 0 2.239-1.146 2.092-.818-.1-.802-1.247-.802-2.214V7.331h-9.466c.84.988 1.097 2.778 1.097 3.889 0 0-.05 8.256.107 9.84.157 1.585 1.232 4.084 5.17 4.375 3.017.224 4.422-1.306 5.035-1.996.174.415-.17 2.558-2.95 3.293-2.655.697-5.02-.337-5.64-.659-.175 1.696-.518 4.19-.518 4.19s3.46 2.396 9.146 1.56c7.329-1.078 8.536-7.059 8.537-9.203.003-3.24.003-14.04.003-15.289Z"></path></svg></svg>