<svg xmlns="http://www.w3.org/2000/svg" xmlns:xlink="http://www.w3.org/1999/xlink" viewBox="0 0 24 24" data-source-page="category"><svg xmlns="http://www.w3.org/2000/svg" viewBox="0 0 20 20"><path fill-rule="evenodd" d="M5.87704 0.070006C6.9436 0.0213879 7.28415 0.0098877 10 0.0098877C12.7159 0.0098877 13.0564 0.0213879 14.123 0.070006C15.1874 0.118505 15.9143 0.2874 16.5504 0.534337C17.208 0.789642 17.7656 1.13124 18.3216 1.68662C18.8775 2.24204 19.2194 2.79917 19.475 3.4561C19.7222 4.09155 19.8912 4.81777 19.9398 5.8811C19.9885 6.94666 20 7.28686 20 10C20 12.7132 19.9885 13.0534 19.9398 14.1189C19.8912 15.1823 19.7222 15.9085 19.475 16.5439C19.2194 17.2009 18.8775 17.758 18.3216 18.3134C17.7656 18.8688 17.208 19.2104 16.5504 19.4657C15.9143 19.7126 15.1874 19.8815 14.123 19.93C13.0564 19.9787 12.7159 19.9902 10 19.9902C7.28415 19.9902 6.9436 19.9787 5.87704 19.93C4.81262 19.8815 4.08573 19.7126 3.44961 19.4657C2.79203 19.2104 2.23435 18.8688 1.67842 18.3134C1.12249 17.758 0.780562 17.2009 0.525006 16.5439C0.277786 15.9085 0.108764 15.1823 0.0601776 14.1189C0.0115115 13.0534 0 12.7132 0 10C0 7.28686 0.0115115 6.94666 0.0601776 5.8811C0.108764 4.81777 0.277786 4.09155 0.525006 3.4561C0.780562 2.79917 1.12249 2.24204 1.67842 1.68662C2.23435 1.13124 2.79203 0.789642 3.44961 0.534337C4.08573 0.2874 4.81262 0.118505 5.87704 0.070006ZM14.0406 1.86819C12.9861 1.82013 12.6699 1.80994 9.99977 1.80994C7.32965 1.80994 7.0134 1.82013 5.9589 1.86819C4.98395 1.9126 4.45442 2.07535 4.10205 2.21217C3.63532 2.39339 3.3022 2.60987 2.95224 2.95948C2.60233 3.30905 2.3856 3.64184 2.20419 4.10815C2.06728 4.46018 1.90438 4.98915 1.85988 5.96318C1.81177 7.0166 1.80161 7.33258 1.80161 10.0001C1.80161 12.6675 1.81177 12.9835 1.85988 14.0369C1.90438 15.0109 2.06728 15.5399 2.20419 15.8919C2.3856 16.3583 2.60233 16.691 2.95224 17.0406C3.3022 17.3902 3.63532 17.6067 4.10205 17.7879C4.45442 17.9247 4.98395 18.0875 5.95894 18.1319C7.01324 18.18 7.32949 18.1902 9.99977 18.1902C12.6701 18.1902 12.9863 18.18 14.0406 18.1319C15.0156 18.0875 15.5451 17.9247 15.8975 17.7879C16.3642 17.6067 16.6973 17.3902 17.0473 17.0406C17.3972 16.691 17.6139 16.3583 17.7953 15.8919C17.9323 15.5399 18.0952 15.0109 18.1397 14.0369C18.1878 12.9835 18.1979 12.6675 18.1979 10.0001C18.1979 7.33258 18.1878 7.0166 18.1397 5.96318C18.0952 4.98915 17.9323 4.46018 17.7953 4.10815C17.6139 3.64184 17.3972 3.30905 17.0473 2.95948C16.6973 2.60987 16.3642 2.39339 15.8975 2.21217C15.5451 2.07535 15.0156 1.9126 14.0406 1.86819ZM6.68177 10.01C6.68177 11.812 8.17418 13.2729 10.0151 13.2729C11.8561 13.2729 13.3484 11.812 13.3484 10.01C13.3484 8.20792 11.8561 6.74708 10.0151 6.74708C8.17418 6.74708 6.68177 8.20792 6.68177 10.01ZM4.87908 10.01C4.87908 7.23382 7.17817 4.98334 10.0142 4.98334C12.8503 4.98334 15.1494 7.23382 15.1494 10.01C15.1494 12.7861 12.8503 15.0366 10.0142 15.0366C7.17817 15.0366 4.87908 12.7861 4.87908 10.01ZM14.6188 6.11276C15.2815 6.11276 15.8188 5.58688 15.8188 4.93813C15.8188 4.28939 15.2815 3.7635 14.6188 3.7635C13.9561 3.7635 13.4188 4.28939 13.4188 4.93813C13.4188 5.58688 13.9561 6.11276 14.6188 6.11276Z" clip-rule="evenodd"></path></svg></svg>