<svg xmlns="http://www.w3.org/2000/svg" xmlns:xlink="http://www.w3.org/1999/xlink" viewBox="0 0 24 24" data-source-page="category"><svg xmlns="http://www.w3.org/2000/svg" fill="none" viewBox="0 0 48 48"><g clip-path="url(#icon-tip-hat-a)"><circle cx="24" cy="24" r="24" fill="#E7AB46"></circle><path fill="#040707" d="M46 17.629C46 12.2545 41.5093 7.88203 35.9807 7.88203C34.7716 7.88033 33.5719 8.09435 32.438 8.51401C31.5099 7.12519 30.2536 5.98667 28.7805 5.1993C27.3073 4.41193 25.6627 4 23.9923 4C22.3219 4 20.6773 4.41193 19.2041 5.1993C17.7309 5.98667 16.4747 7.12519 15.5466 8.51401C14.4175 8.09615 13.2232 7.88216 12.0193 7.88203C6.49839 7.88203 2 12.2494 2 17.629C2 22.4177 5.5684 26.4074 10.2492 27.2218V43.8358C10.2499 44.2108 10.3993 44.5702 10.6647 44.8351C10.9301 45.1 11.2898 45.2488 11.6647 45.2488H36.3276C36.7025 45.2488 37.0622 45.1 37.3276 44.8351C37.593 44.5702 37.7424 44.2108 37.7431 43.8358V27.2218C42.4316 26.4074 46 22.4177 46 17.629ZM35.9807 25.9989C34.4227 26.0014 32.8918 25.591 31.544 24.8095C31.3874 24.7297 31.2062 24.7128 31.0376 24.7622C30.869 24.8117 30.7256 24.9238 30.637 25.0755C30.5483 25.2272 30.521 25.4071 30.5607 25.5783C30.6003 25.7495 30.704 25.8991 30.8504 25.9964C32.4103 26.9043 34.1835 27.3812 35.9884 27.3785C36.1169 27.3785 36.2453 27.3785 36.3738 27.3785V43.8486C36.3738 43.8588 36.3697 43.8686 36.3625 43.8759C36.3553 43.8831 36.3455 43.8872 36.3353 43.8872H11.6724C11.662 43.8872 11.6519 43.8832 11.6443 43.876C11.6366 43.8689 11.632 43.8591 11.6313 43.8486V27.3785C11.7624 27.3785 11.8882 27.3785 12.0193 27.3785C13.8251 27.3779 15.5983 26.8973 17.1574 25.9861C17.2486 25.9488 17.3308 25.8923 17.3984 25.8204C17.466 25.7486 17.5173 25.6631 17.549 25.5697C17.5806 25.4763 17.5918 25.3772 17.5818 25.2791C17.5719 25.181 17.5409 25.0861 17.4911 25.001C17.4413 24.9159 17.3738 24.8425 17.2931 24.7857C17.2125 24.729 17.1206 24.6902 17.0237 24.672C16.9268 24.6539 16.8271 24.6567 16.7313 24.6804C16.6356 24.7042 16.5461 24.7481 16.4689 24.8095C15.1172 25.5932 13.5817 26.0037 12.0193 25.9989C7.24856 25.9989 3.37444 22.2404 3.37444 17.629C3.37444 13.0175 7.24856 9.25647 12.0193 9.25647C13.2412 9.25425 14.4503 9.50621 15.5697 9.99635C15.7251 10.0651 15.9004 10.0737 16.0618 10.0205C16.2232 9.96739 16.3591 9.85624 16.4432 9.70862C17.2165 8.38917 18.3215 7.29494 19.6485 6.53459C20.9755 5.77424 22.4783 5.37421 24.0077 5.37421C25.5371 5.37421 27.0399 5.77424 28.3669 6.53459C29.6939 7.29494 30.7989 8.38917 31.5723 9.70862C31.6568 9.85581 31.7927 9.9666 31.9539 10.0197C32.1151 10.0728 32.2903 10.0645 32.4457 9.99635C33.5651 9.50621 34.7742 9.25425 35.9961 9.25647C40.7592 9.25647 44.6333 13.0124 44.6333 17.629C44.6333 22.2455 40.7514 25.9989 35.9884 25.9989H35.9807Z"></path><path fill="#040707" d="M29.4865 36.3135V39.7509H24.685V36.3135C24.6907 36.2198 24.6772 36.1258 24.6452 36.0374C24.6133 35.9491 24.5636 35.8682 24.4992 35.7998C24.4349 35.7313 24.3572 35.6768 24.2709 35.6395C24.1847 35.6022 24.0917 35.583 23.9977 35.583C23.9038 35.583 23.8108 35.6022 23.7246 35.6395C23.6383 35.6768 23.5606 35.7313 23.4963 35.7998C23.4319 35.8682 23.3822 35.9491 23.3502 36.0374C23.3183 36.1258 23.3048 36.2198 23.3105 36.3135V39.7509H18.4987V36.3135C18.4987 36.1309 18.4262 35.9558 18.297 35.8267C18.1679 35.6976 17.9928 35.625 17.8102 35.625C17.6276 35.625 17.4525 35.6976 17.3234 35.8267C17.1942 35.9558 17.1217 36.1309 17.1217 36.3135V39.7509H13.0112V41.1254H35.01V39.7509H30.8712V36.3135C30.877 36.2198 30.8634 36.1258 30.8315 36.0374C30.7996 35.9491 30.7499 35.8682 30.6855 35.7998C30.6211 35.7313 30.5434 35.6768 30.4572 35.6395C30.3709 35.6022 30.278 35.583 30.184 35.583C30.09 35.583 29.9971 35.6022 29.9108 35.6395C29.8246 35.6768 29.7469 35.7313 29.6825 35.7998C29.6181 35.8682 29.5684 35.9491 29.5365 36.0374C29.5046 36.1258 29.491 36.2198 29.4968 36.3135H29.4865Z"></path><path fill="#F5F6EA" d="M35.9872 9.25726C34.7652 9.25505 33.5561 9.50701 32.4367 9.99715C32.2813 10.0653 32.1061 10.0736 31.9449 10.0205C31.7837 9.96739 31.6478 9.85661 31.5633 9.70941C30.7899 8.38996 29.6849 7.29574 28.3579 6.53539C27.0309 5.77503 25.5281 5.375 23.9987 5.375C22.4693 5.375 20.9665 5.77503 19.6395 6.53539C18.3126 7.29574 17.2075 8.38996 16.4342 9.70941C16.3501 9.85703 16.2142 9.96819 16.0528 10.0213C15.8914 10.0745 15.7161 10.0659 15.5607 9.99715C14.4437 9.50805 13.2374 9.25611 12.018 9.25726C7.25498 9.25726 3.38086 13.0132 3.38086 17.6298C3.38086 22.2463 7.24727 25.9997 12.018 25.9997C13.5804 26.0045 15.116 25.594 16.4676 24.8103C16.5448 24.7489 16.6343 24.7049 16.73 24.6812C16.8258 24.6575 16.9255 24.6547 17.0224 24.6728C17.1193 24.691 17.2112 24.7298 17.2919 24.7865C17.3725 24.8433 17.44 24.9167 17.4898 25.0018C17.5396 25.0869 17.5706 25.1818 17.5805 25.2799C17.5905 25.378 17.5793 25.4771 17.5477 25.5705C17.516 25.6639 17.4647 25.7494 17.3971 25.8212C17.3296 25.8931 17.2474 25.9496 17.1561 25.9869C15.597 26.8981 13.8238 27.3787 12.018 27.3793C11.8895 27.3793 11.7611 27.3793 11.6301 27.3793V43.8494C11.6307 43.8599 11.6353 43.8697 11.643 43.8768C11.6506 43.884 11.6607 43.888 11.6712 43.888H36.334C36.3442 43.888 36.354 43.8839 36.3612 43.8767C36.3684 43.8695 36.3725 43.8597 36.3725 43.8494V27.3793C36.2441 27.3793 36.1156 27.3793 35.9872 27.3793C34.1772 27.382 32.3992 26.9022 30.8362 25.9894C30.6911 25.8905 30.5893 25.7399 30.5517 25.5684C30.514 25.3968 30.5433 25.2174 30.6335 25.0668C30.7238 24.9161 30.8682 24.8057 31.0372 24.758C31.2062 24.7103 31.387 24.729 31.5427 24.8103C32.8956 25.5989 34.4341 26.013 36 26.01C40.763 26.01 44.6371 22.2566 44.6371 17.6401C44.6371 13.0235 40.7502 9.25726 35.9872 9.25726ZM30.8722 36.3144V39.7518H34.9981V41.1262H12.9994V39.7518H17.1098V36.3144C17.1098 36.1318 17.1824 35.9567 17.3115 35.8276C17.4406 35.6985 17.6157 35.6259 17.7983 35.6259C17.9809 35.6259 18.1561 35.6985 18.2852 35.8276C18.4143 35.9567 18.4868 36.1318 18.4868 36.3144V39.7518H23.3218V36.3144C23.316 36.2206 23.3296 36.1267 23.3615 36.0383C23.3934 35.95 23.4431 35.8691 23.5075 35.8006C23.5719 35.7322 23.6496 35.6777 23.7358 35.6404C23.8221 35.6031 23.915 35.5839 24.009 35.5839C24.1029 35.5839 24.1959 35.6031 24.2822 35.6404C24.3684 35.6777 24.4461 35.7322 24.5105 35.8006C24.5749 35.8691 24.6245 35.95 24.6565 36.0383C24.6884 36.1267 24.7019 36.2206 24.6962 36.3144V39.7518H29.4875V36.3144C29.4817 36.2206 29.4953 36.1267 29.5272 36.0383C29.5591 35.95 29.6088 35.8691 29.6732 35.8006C29.7376 35.7322 29.8153 35.6777 29.9015 35.6404C29.9878 35.6031 30.0807 35.5839 30.1747 35.5839C30.2686 35.5839 30.3616 35.6031 30.4479 35.6404C30.5341 35.6777 30.6118 35.7322 30.6762 35.8006C30.7406 35.8691 30.7902 35.95 30.8222 36.0383C30.8541 36.1267 30.8676 36.2206 30.8619 36.3144H30.8722Z"></path></g><defs><clipPath id="icon-tip-hat-a"><path fill="#fff" d="M0 0H48V48H0z"></path></clipPath></defs></svg></svg>