<svg xmlns="http://www.w3.org/2000/svg" xmlns:xlink="http://www.w3.org/1999/xlink" viewBox="0 0 24 24" data-source-page="recipe"><svg xmlns="http://www.w3.org/2000/svg" width="20" height="20" fill="none"><path fill="#000" fill-opacity=".65" fill-rule="evenodd" d="M1.66797 9.99984C1.66797 5.39984 5.4013 1.6665 10.0013 1.6665C14.6013 1.6665 18.3346 5.39984 18.3346 9.99984C18.3346 14.5998 14.6013 18.3332 10.0013 18.3332C5.4013 18.3332 1.66797 14.5998 1.66797 9.99984ZM10.8346 13.3332V14.9998H9.16797V13.3332H10.8346ZM10.0013 16.6665C6.3263 16.6665 3.33464 13.6748 3.33464 9.99984C3.33464 6.32484 6.3263 3.33317 10.0013 3.33317C13.6763 3.33317 16.668 6.32484 16.668 9.99984C16.668 13.6748 13.6763 16.6665 10.0013 16.6665ZM6.66797 8.33317C6.66797 6.4915 8.15964 4.99984 10.0013 4.99984C11.843 4.99984 13.3346 6.4915 13.3346 8.33317C13.3346 9.40227 12.6763 9.9776 12.0353 10.5378C11.4272 11.0692 10.8346 11.587 10.8346 12.4998H9.16797C9.16797 10.9821 9.95307 10.3803 10.6433 9.85123C11.1848 9.43618 11.668 9.06585 11.668 8.33317C11.668 7.4165 10.918 6.6665 10.0013 6.6665C9.08464 6.6665 8.33464 7.4165 8.33464 8.33317H6.66797Z" clip-rule="evenodd"></path></svg></svg>