<svg xmlns="http://www.w3.org/2000/svg" xmlns:xlink="http://www.w3.org/1999/xlink" viewBox="0 0 24 24" data-source-page="category"><svg xmlns="http://www.w3.org/2000/svg" id="people-inc-logo-Layer_1" version="1.1" viewBox="0 0 720 160.56"><defs><style>.people-inc-logo-st1,.people-inc-logo-st2{fill:#131920}.people-inc-logo-st2{fill-rule:evenodd}</style></defs><path d="M453.23,82.67c1.66-.01,1.54-.98,1.54-.98-1.62-20.71-18.29-36.76-38.66-36.69-21.4.08-38.68,18.13-38.61,40.32.07,22.2,17.68,39.63,39.06,40.13,16.75.39,29.17-5.15,36.76-23.4.95-3.02-2-4.84-3.95-1.02-12.2,23.88-35.11,15.33-41.51,8.51-5.66-6.04-8.83-14.83-9.24-26.7l54.6-.17ZM398.87,77.2c.09-16.01,7.57-26.55,18.07-26.58,10.41-.04,18.24,8.38,18.13,26.48l-36.2.1Z" class="people-inc-logo-st1"></path><path d="M46.14 72.2c28.35 0 45.96-12.92 45.96-33.71s-15.52-30.05-46.12-30.05H0v3.17l.99.2c7.73 2.05 8.33 2.94 8.33 36.14v37.58c0 33.43-.65 34.56-7.62 36.45l-.99.2v3.37h39.85v-3.4l-.79-.18c-7.7-1.79-8.07-3.49-8.07-36.44v-13.34h14.45ZM31.7 12.85h14.12c17.12 0 24.76 8.26 24.76 27.32s-7.68 27.39-24.92 27.39h-13.96V12.85ZM234 55.98c-8.73-7.06-19.13-9.57-25.95-9.57s-17.25 2.51-26.03 9.57c-6.61 5.31-14.48 15.03-14.48 31.17 0 28.97 24.85 39.76 40.51 39.76s40.34-10.8 40.34-39.76c0-16.15-7.83-25.86-14.39-31.17ZM208.06 122.1c-12.39 0-18.67-10.56-18.67-34.95s6.63-35.93 18.67-35.93c8.44 0 18.5 4.74 18.5 35.93 0 24.39-6.22 34.95-18.5 34.95ZM367.49.98c0-.96-1.16-1.32-1.81-.62-2.89 3.12-6 5.88-13.33 9.94-9.09 5.04-12.86 5.03-12.86 5.03v3.4l.96.05c5.28 1.44 6.51 3.09 6.51 18.57v61.49c0 19.57-.18 21.43-6.48 23.07l-1.26.15v3.42h37.04v-3.45l-.85-.13c-6.83-1.47-7.3-4.94-7.3-25.02l-.63-95.9Z" class="people-inc-logo-st2"></path><path d="M247.49,58.72c7.89.64,10.29,4.95,10.64,11.68v42.02h.03s0,12.87,0,12.87c0,23.42.75,30.98-7.76,31.94h-.47v3.33h37.19v-3.33l-1-.14c-8.76-1.64-6.98-12.23-6.98-31.8v-5.08c5.02,3.19,10.78,4.87,16.78,4.87,24.75,0,41.37-16.83,41.37-41.89s-17.08-38.23-32.94-38.23c-11.36,0-19.14,6.63-24.66,12.68l-.63.72v-8.17c0-1.01.03-2.76.06-4.35.01-.9-1.06-1.37-1.71-.75-1.15,1.09-2.66,2.43-3.84,3.18-3.96,2.58-6.29,4.04-10.98,5.45-3.53.96-5.25,1.11-8.19,1.39-3.17.3-4.77.23-6.89.22v3.39ZM295.57,120.49c-5.74,0-11.12-1.8-16.43-5.5v-49.96l1.69-1.89c4.78-5.28,11-11.17,18.01-11.17,14.73,0,16.43,18.51,16.43,34.01,0,31.41-12.34,34.52-19.7,34.52Z" class="people-inc-logo-st2"></path><path d="M607.86 67.05c-.03-21.19-37.6-31.15-50.48-6.61 0 0-.02-8.54-.03-13.56 0-.97-1.24-1.38-1.82-.61l-.94 1.24c-10.03 11.97-22.83 10.02-26.08 10.22v3.32c8.42.67 9.71 7.15 9.72 9.97l.1 31.94c0 18.41-3.61 18.43-9.05 19.03l.03 3.38 37.4-.11v-3.38c-4.54-.73-9.19-1.05-9.19-18.97l-.09-29.5c-.03-7.18 7.47-13.96 11.4-16.36 3.94-2.41 9.14-3.13 13.51-.46 4.37 2.66 5.99 6.87 6 12.79.02 4.51.11 33.68.11 33.68 0 18.69-3.05 17.85-8.95 18.79l.05 3.48 37.34-.12.02-3.49c-4.13-.69-8.99-1.09-8.99-18.97l-.07-35.69ZM522.65 125.54l.02-3.39c-5.43-.51-12.29.53-11.95-19.18l.23-72.07-.05-.51c-.08-19.07 6.88-18.33 11.89-18.97l-.02-3.33h-44.91l-.02 3.33c5.02.63 11.97-.1 11.89 18.97l-.05.51.23 72.07c.34 19.71-6.53 18.67-11.95 19.18l.02 3.39h44.68ZM160.36 82.56c1.66-.01 1.54-.98 1.54-.98-1.62-20.71-18.29-36.76-38.66-36.69-21.4.08-38.68 18.13-38.61 40.32.07 22.2 17.68 39.63 39.06 40.13 16.75.39 29.17-5.15 36.76-23.4.95-3.02-2-4.84-3.95-1.02-12.2 23.88-35.11 15.33-41.51 8.51-5.66-6.04-8.83-14.83-9.24-26.7l54.6-.17ZM106 77.09c.09-16.01 7.57-26.55 18.07-26.58 10.41-.04 18.24 8.38 18.13 26.48l-36.2.1Z" class="people-inc-logo-st1"></path><path d="M696.28,115.52c.01,6.55,5.34,11.83,11.9,11.82,6.53-.02,11.83-5.35,11.82-11.9-.02-6.53-5.36-11.82-11.89-11.8-6.56.01-11.85,5.34-11.82,11.88Z" style="fill:#ffd400"></path><path d="M689.77,66.18c-.19-1.8-.84-3.52-1.86-5.01-6.7-9.74-17.12-15.74-30.11-15.77-19.84-.03-38.39,17.82-38.32,39.99.07,22.16,14.82,39.67,36.58,40.2,15.94.4,29.88-6.54,36.73-23.43,1.15-3.41-1.6-4.68-3.48-.81-10.89,22.36-32.97,13.69-39.48,6.88-5.61-5.86-9.59-13.33-10.18-24.66-.14-4.28.17-6.29.24-7.76,1.08-14.07,9.33-24.77,19.74-24.8,6.42-.02,11.57.72,15.08,6.74l.08.22c1.05,1.94.34,3.94-.25,5.29-.58,1.31-.71,2.51-.7,3.81.01,4.81,3.52,8.5,8.05,8.48,4.54,0,7.84-3.72,7.96-8.53,0,0,0-.32-.05-.84Z" class="people-inc-logo-st1"></path></svg></svg>