<svg xmlns="http://www.w3.org/2000/svg" xmlns:xlink="http://www.w3.org/1999/xlink" viewBox="0 0 24 24" data-source-page="home"><svg xmlns="http://www.w3.org/2000/svg" viewBox="0 0 14 14"><g clip-path="url(#icon-star-a)"><path stroke="#000" stroke-linejoin="round" stroke-width=".907" d="M7.418 1.283a.453.453 0 0 0-.835 0L5.056 4.909l-3.927.327a.453.453 0 0 0-.258.795l2.998 2.59-.926 3.814a.453.453 0 0 0 .675.495L7 10.884l3.382 2.046a.453.453 0 0 0 .675-.495l-.926-3.814 2.999-2.59a.453.453 0 0 0-.259-.795l-3.926-.327-1.527-3.626Z"></path></g><defs><clipPath id="icon-star-a"><path fill="#fff" d="M0 0h14v14H0z"></path></clipPath></defs></svg></svg>