<svg xmlns="http://www.w3.org/2000/svg" xmlns:xlink="http://www.w3.org/1999/xlink" viewBox="0 0 24 24" data-source-page="home"><svg xmlns="http://www.w3.org/2000/svg" viewBox="0 0 14 14"><path d="m7 1.458 1.633 3.88 4.2.35-3.209 2.77.992 4.084-3.617-2.188-3.616 2.188.991-4.083-3.208-2.771 4.2-.35 1.633-3.88Z"></path><path fill-rule="evenodd" d="M7 .875c.234 0 .446.14.537.357l1.497 3.554 3.848.32a.583.583 0 0 1 .332 1.023l-2.938 2.538.907 3.737a.583.583 0 0 1-.868.637L7 11.036 3.685 13.04a.583.583 0 0 1-.869-.637l.908-3.737L.785 6.129a.583.583 0 0 1 .333-1.023l3.848-.32 1.496-3.554A.583.583 0 0 1 7 .875ZM5.366 5.338l-4.2.35 3.209 2.77-.992 4.084L7 10.354l3.616 2.188-.991-4.084 3.208-2.77-4.2-.35L7 1.458l-1.634 3.88Z" clip-rule="evenodd"></path><path fill="#fff" d="m7 1.458 1.633 3.88 4.2.35-3.209 2.77.992 4.084-3.617-2.188-3.616 2.188.991-4.083-3.208-2.771 4.2-.35 1.633-3.88Z"></path><path d="M7 1.458v8.896l-3.617 2.188.991-4.083-3.208-2.771 4.2-.35 1.633-3.88Z"></path></svg></svg>