<svg xmlns="http://www.w3.org/2000/svg" xmlns:xlink="http://www.w3.org/1999/xlink" viewBox="0 0 24 24" data-source-page="category"><svg xmlns="http://www.w3.org/2000/svg" viewBox="0 0 28 28"><path fill="currentColor" d="M27.4166 7.44526C27.4166 7.44526 27.4166 7.44071 27.4166 7.43798C27.4138 6.44286 27.2232 5.47684 26.8504 4.56267C26.4766 3.64486 25.938 2.8262 25.2493 2.12943C24.5569 1.42811 23.7486 0.886882 22.8463 0.519394C22.0002 0.174648 21.1099 0 20.2003 0C20.1423 0 20.0843 0 20.0253 0.00181924C18.8763 0.0109155 17.7632 0.2647 16.7173 0.756806C15.6742 1.248 14.7599 1.94568 14.0004 2.83256C13.2399 1.94568 12.3266 1.24709 11.2834 0.756806C10.2366 0.2647 9.12352 0.0109155 7.9745 0.00181924C7.9165 0 7.85757 0 7.79957 0C6.88994 0 5.99964 0.174648 5.15353 0.519394C4.25126 0.886882 3.4429 1.42811 2.75054 2.12943C2.06187 2.8262 1.52327 3.64486 1.14947 4.56267C0.776596 5.47593 0.586014 6.44286 0.583252 7.43434C0.583252 7.43798 0.583252 7.44162 0.583252 7.44526V10.5116C0.583252 10.5116 0.583252 10.5116 0.583252 10.5125C0.583252 10.5125 0.583252 10.5143 0.583252 10.5152V10.5662C0.597983 12.9348 1.56378 15.1816 3.71082 17.8441L3.72463 17.8613L3.73936 17.8786C6.31267 20.8131 9.1051 23.5892 12.0393 26.1289L13.227 27.2741L13.9792 28L14.7498 27.2932L15.9476 26.1953C18.8809 23.6484 21.677 20.8704 24.2568 17.9378L24.2771 17.915L24.2964 17.8905C26.4379 15.1598 27.4019 12.8984 27.4147 10.5662V7.44526H27.4166Z"></path><path stroke="currentColor" d="M20.0437 1.09341C19.0604 1.09978 18.0881 1.32082 17.1914 1.74197C16.2946 2.16404 15.4936 2.77712 14.839 3.54212L13.9994 4.54543L13.1597 3.54212C12.5051 2.77712 11.7032 2.16404 10.8064 1.74197C9.90969 1.31991 8.93837 1.09887 7.95508 1.09341C7.1412 1.07158 6.33192 1.21985 5.57327 1.52821C4.81555 1.83657 4.12412 2.30048 3.5404 2.89174C2.95669 3.48299 2.49175 4.18886 2.17411 4.97022C1.85555 5.75068 1.69075 6.59026 1.68799 7.43803C1.68799 9.56018 2.57184 11.6014 4.57525 14.0855C7.13015 17 9.87563 19.7279 12.7905 22.2494L13.9994 23.4155L15.2082 22.3076C18.1194 19.7816 20.864 17.0536 23.4235 14.1438C25.4269 11.5895 26.3117 9.54835 26.3117 7.43803C26.3089 6.59026 26.1432 5.75068 25.8256 4.97022C25.5079 4.18977 25.043 3.48299 24.4583 2.89174C23.8746 2.30048 23.1832 1.83748 22.4255 1.52821C21.6677 1.21985 20.8575 1.07158 20.0437 1.09341Z"></path></svg></svg>