<svg width="150" height="95" viewBox="0 0 150 95" fill="none" xmlns="http://www.w3.org/2000/svg">
<g clip-path="url(#clip0_2755_61786)">
<path opacity="0.5" d="M10.1442 66.5556C12.8831 65.8313 4.94474 63.8579 9.34683 62.0596C13.7489 60.2613 25.1761 54.3851 33.6996 53.7147C42.2231 53.0449 76.7706 44.1073 82.4381 42.7474C88.1061 41.387 80.8022 40.6076 85.3852 39.1955C89.9682 37.784 92.9037 37.7283 95.5116 37.2308C98.12 36.7332 130.879 52.342 134.809 54.6124C138.739 56.8827 136.783 60.172 132.287 61.6229C127.451 63.1834 122.421 62.6447 118.183 64.2859C113.946 65.927 74.7769 80.764 69.8169 82.5745C55.1464 87.9288 58.1926 91.8629 50.5454 93.5191C46.9952 94.2881 41.4019 94.7792 34.0446 89.8848C31.402 88.1271 28.0356 89.4997 27.2707 88.9975C25.5565 87.8725 8.90146 71.014 7.01734 68.9709C6.11152 67.9886 7.40414 67.2799 10.1431 66.5556H10.1442Z" fill="#6E7479"/>
<path d="M100.505 22.7763L97.4915 21.1775L87.9375 39.9213L90.9594 41.5242L100.505 22.7763Z" fill="#2C343D"/>
<path d="M84.9688 26.6948C82.3308 31.8705 83.6605 37.7925 87.9391 39.9214C92.2177 42.0502 97.826 39.5804 100.464 34.4047C103.102 29.2284 101.772 23.307 97.4931 21.1775C93.2145 19.0487 87.6074 21.5185 84.9688 26.6948Z" fill="#2C343D"/>
<path d="M88.8966 28.7528C86.2609 33.9297 87.1841 39.6482 90.9587 41.5242C94.7339 43.4008 99.9317 40.7251 102.568 35.5482C105.204 30.3714 104.28 24.6529 100.505 22.7763C96.7306 20.8997 91.5334 23.5754 88.8971 28.7523L88.8966 28.7528Z" fill="#6E7479"/>
<path d="M90.6331 29.6181C88.4578 33.8915 89.1415 38.5725 92.1605 40.0727C95.1795 41.5729 99.3909 39.3246 101.566 35.0507C103.741 30.7768 103.057 26.0963 100.038 24.5961C97.019 23.0959 92.8083 25.3442 90.6331 29.6181Z" fill="#C8CACC"/>
<path d="M90.9646 29.7798C89.1587 33.3254 89.7485 37.2206 92.281 38.4802C94.814 39.7398 98.3317 37.8858 100.138 34.3402C101.943 30.7947 101.354 26.8988 98.8206 25.6398C96.2876 24.3809 92.7704 26.2342 90.9646 29.7798Z" fill="#C8CACC"/>
<path d="M91.1867 29.8907C89.6338 32.9405 90.1371 36.2894 92.3112 37.3704C94.4858 38.4513 97.5078 36.8554 99.0608 33.8057C100.614 30.7559 100.11 27.407 97.9357 26.326C95.7617 25.2451 92.7397 26.841 91.1867 29.8907Z" fill="#2C343D"/>
<path d="M93.6 31.0662C92.7916 32.6534 93.0879 34.414 94.2617 34.9974C95.436 35.5814 97.0429 34.7672 97.8513 33.18C98.6597 31.5928 98.3634 29.8321 97.1891 29.2488C96.0153 28.6648 94.4078 29.479 93.5994 31.0662H93.6Z" fill="#C8CACC"/>
<path d="M94.6399 31.5811C94.3534 32.1436 94.4584 32.7676 94.8748 32.9746C95.2912 33.1817 95.8606 32.8929 96.1471 32.3303C96.4336 31.7678 96.3286 31.1438 95.9122 30.9368C95.4959 30.7298 94.9264 31.0186 94.6399 31.5811Z" fill="#2C343D"/>
<path d="M29.0359 43.9789L25.7084 41.2708L9.3457 62.0599L12.6819 64.7751L29.0359 43.9789Z" fill="#2C343D"/>
<path d="M8.91189 45.0181C4.39381 50.7587 4.58808 58.3885 9.34624 62.0594C14.105 65.7302 21.6258 64.0525 26.1439 58.312C30.6626 52.5709 30.4671 44.941 25.709 41.2702C20.9508 37.5993 13.4305 39.277 8.91189 45.0181Z" fill="#2C343D"/>
<path d="M13.258 48.5162C8.74221 54.2585 8.48473 61.5381 12.6833 64.7746C16.8818 68.011 23.9474 65.9796 28.4632 60.2373C32.9795 54.4945 33.2359 47.2149 29.0373 43.9784C24.8388 40.7419 17.7743 42.7734 13.258 48.5162Z" fill="#6E7479"/>
<path d="M15.2752 50.0767C11.609 54.7409 11.2773 60.5574 14.5341 63.0673C17.7914 65.5771 23.4055 63.8304 27.0717 59.1662C30.7385 54.5014 31.0696 48.6849 27.8123 46.1751C24.5549 43.6652 18.942 45.4119 15.2752 50.0767Z" fill="#C8CACC"/>
<path d="M15.5568 50.2883C12.4635 54.2213 12.2397 59.1708 15.0563 61.3426C17.8735 63.5144 22.6653 62.0872 25.7586 58.1542C28.8518 54.2213 29.0756 49.2718 26.2584 47.0994C23.4412 44.9277 18.65 46.3554 15.5568 50.2883Z" fill="#C8CACC"/>
<path d="M15.8034 50.4792C13.1428 53.8618 12.9462 58.1161 15.3644 59.9805C17.7826 61.8449 21.9006 60.6143 24.5612 57.2311C27.2218 53.8479 27.4184 49.5943 24.9996 47.7293C22.5814 45.8649 18.464 47.0955 15.8034 50.4786V50.4792Z" fill="#2C343D"/>
<path d="M18.4943 52.5181C17.1094 54.2787 17.0451 56.5224 18.351 57.5291C19.657 58.5358 21.8386 57.9246 23.2234 56.164C24.6083 54.4034 24.6726 52.1591 23.3667 51.1524C22.0607 50.1457 19.8797 50.7569 18.4949 52.5181H18.4943Z" fill="#C8CACC"/>
<path d="M19.6512 53.4078C19.1605 54.0317 19.1374 54.8274 19.6001 55.184C20.0629 55.5407 20.8365 55.3244 21.3271 54.6998C21.8183 54.0758 21.8409 53.2802 21.3775 52.9235C20.9148 52.5669 20.1418 52.7832 19.6506 53.4078H19.6512Z" fill="#2C343D"/>
<path d="M100.783 20.9123L103.207 21.1657L106.317 20.3822V18.084L105.254 15.4188C105.196 15.2732 105.04 15.1914 104.887 15.2262L100.584 16.2016C100.435 16.2359 100.33 16.3716 100.336 16.5252L100.499 20.6084C100.505 20.7667 100.626 20.8966 100.784 20.9128L100.783 20.9123Z" fill="#2C343D"/>
<path d="M104.029 19.8081L107.978 24.7681C108.278 25.145 108.442 25.6124 108.442 26.0937V41.7942" stroke="#005AB8" stroke-width="0.289955" stroke-linecap="round" stroke-linejoin="round"/>
<path d="M104.656 19.6417L108.605 24.6016C108.905 24.9786 109.069 25.446 109.069 25.9273V41.6278" stroke="#005AB8" stroke-width="0.289955" stroke-linecap="round" stroke-linejoin="round"/>
<path d="M105.283 19.4759L109.232 24.4359C109.532 24.8128 109.696 25.2802 109.696 25.7615V41.462" stroke="#005AB8" stroke-width="0.289955" stroke-linecap="round" stroke-linejoin="round"/>
<path d="M94.1424 31.644C93.7626 32.4959 93.9313 33.3988 94.5194 33.6615C95.1074 33.9237 95.892 33.4464 96.2724 32.5945C96.6523 31.7426 96.4835 30.8397 95.8955 30.577C95.3075 30.3149 94.5228 30.7921 94.1424 31.644Z" fill="#5D6E81"/>
<path d="M95.8976 30.5735L99.8677 32.3452L98.5495 35.501L94.5215 33.6581L95.8976 30.5735Z" fill="#5D6E81"/>
<path d="M98.1406 33.4458C97.7561 34.3082 97.9393 35.2279 98.55 35.5005C99.1612 35.773 99.9684 35.2952 100.353 34.4329C100.737 33.5705 100.554 32.6508 99.9429 32.3782C99.3323 32.1057 98.525 32.5835 98.14 33.4458H98.1406Z" fill="#8D9195"/>
<path d="M95.123 42.5713L107.404 37.246L108.705 32.9263L129.675 41.5652L128.854 46.2967L117.621 54.0454L95.123 42.5713Z" fill="#2C343D"/>
<path d="M89.6948 39.8034L97.5184 36.0595L108.704 32.9262L108.702 30.8861L97.6674 33.8645L87.5039 38.6859L89.6948 39.8034Z" fill="#C8CACC"/>
<path d="M106.562 30.0301L129.696 39.2791L131.357 38.7166L108.995 29.4282L106.562 30.0301Z" fill="#E6E7E8"/>
<path d="M129.676 41.5651L108.705 32.9262L108.703 30.886L129.676 39.271V41.5651Z" fill="#8D9195"/>
<path d="M87.505 38.686L97.2771 34.0502C97.5375 33.9267 97.8083 33.8269 98.0861 33.7515L108.702 30.8856L106.562 30.0297L97.1541 32.5476C96.7389 32.659 96.3347 32.8074 95.9462 32.9918L85.7891 37.8109L87.5044 38.686H87.505Z" fill="#E6E7E8"/>
<path d="M89.6973 39.8034L95.1252 42.5713L107.406 37.246L108.707 32.9263L97.5208 36.0595L89.6973 39.8034Z" fill="#43596D"/>
<path d="M36.8722 49.2855L80.7041 36.7774L83.6135 36.7015L117.621 54.0454L117.129 55.7834L69.8215 72.9383L65.4252 72.5573L35.8145 51.136L36.8722 49.2855Z" fill="#E6E7E8"/>
<path d="M117.13 55.7834V59.1533L69.8223 76.8719V72.9383L117.13 55.7834Z" fill="#C8CACC"/>
<path d="M117.622 54.0454L117.61 57.4083L117.131 59.1533V55.7834L117.622 54.0454Z" fill="#8D9195"/>
<path d="M69.8224 72.9381L65.4261 72.5571L65.3965 76.4199L69.8224 76.8717V72.9381Z" fill="#8D9195"/>
<path d="M65.3956 76.4201L35.8145 54.1788V51.136L65.4252 72.5573L65.3956 76.4201Z" fill="#8D9195"/>
<path d="M39.5987 57.0233L56.9878 69.8654L33.3646 77.8513L13.748 60.2615L33.7746 54.4682L39.0037 55.7834L39.5987 57.0233Z" fill="#2C343D"/>
<path d="M19.5185 53.2572C18.927 53.9786 18.8945 54.9297 19.446 55.382C19.9975 55.8343 20.9242 55.6169 21.5157 54.8954C22.1072 54.174 22.1397 53.223 21.5882 52.7707C21.0367 52.3183 20.11 52.5358 19.5185 53.2572Z" fill="#5D6E81"/>
<path d="M21.5934 52.7683L25.317 55.8233L23.2183 58.5239L19.4512 55.3796L21.5934 52.7683Z" fill="#5D6E81"/>
<path d="M23.2641 56.3511C22.6651 57.0812 22.6442 58.0538 23.2172 58.5241C23.7901 58.9944 24.7406 58.7833 25.3391 58.0538C25.9381 57.3236 25.959 56.3511 25.3854 55.8808C24.8125 55.4105 23.8626 55.6216 23.2636 56.3517L23.2641 56.3511Z" fill="#8D9195"/>
<path d="M19.6269 59.2993L33.0669 55.5444C33.8236 55.3333 34.6262 55.3536 35.3708 55.6035L39.5972 57.0231L39.0022 53.4422L33.9246 52.7225L17.4023 57.4302L19.6275 59.2993H19.6269Z" fill="#C8CACC"/>
<path d="M17.4035 57.4303L32.7722 53.0514C33.5331 52.8346 34.3305 52.78 35.1139 52.8908L39.004 53.4423L36.7336 51.8L33.7256 51.5379C32.6841 51.4468 31.6345 51.546 30.6277 51.8307L15.7461 56.0386L17.4035 57.4309V57.4303Z" fill="#E6E7E8"/>
<path d="M102.048 34.8558C101.092 36.9986 101.517 39.2701 102.995 39.9301C104.475 40.59 106.449 39.3884 107.404 37.2457C108.36 35.1029 107.936 32.8314 106.456 32.1714C104.977 31.5115 103.003 32.7131 102.047 34.8558H102.048Z" fill="#4971C3"/>
<path d="M106.456 32.1722L114.758 35.8761L111.411 43.7999L102.994 39.9302L106.456 32.1722Z" fill="#4971C3"/>
<path d="M110.381 38.6317C109.414 40.8006 109.875 43.1144 111.411 43.7999C112.948 44.4853 114.978 43.2832 115.946 41.1143C116.914 38.9455 116.453 36.6316 114.916 35.9456C113.379 35.2601 111.349 36.4623 110.382 38.6312L110.381 38.6317Z" fill="#7EB2EB"/>
<path d="M111.293 39.0382C110.552 40.6985 110.869 42.4544 112.002 42.9595C113.134 43.4646 114.653 42.5281 115.394 40.8678C116.135 39.207 115.818 37.4516 114.685 36.9459C113.552 36.4408 112.034 37.3773 111.293 39.0376L111.293 39.0382Z" fill="#E6E7E8"/>
<path d="M111.58 39.1669C110.913 40.6619 111.181 42.2341 112.177 42.6789C113.174 43.1237 114.523 42.2723 115.19 40.7773C115.857 39.2823 115.589 37.7102 114.592 37.2654C113.595 36.8206 112.247 37.6719 111.58 39.1669Z" fill="#E6E7E8"/>
<path d="M104.708 35.0276C103.581 37.5531 104.081 40.2305 105.825 41.0082C107.568 41.7859 109.895 40.3697 111.022 37.8442C112.148 35.3187 111.648 32.6413 109.904 31.8636C108.161 31.086 105.834 32.5021 104.708 35.0276Z" fill="#4971C3"/>
<path d="M109.904 31.8635L119.69 36.2291L115.744 45.5691L105.824 41.0081L109.904 31.8635Z" fill="#4971C3"/>
<path d="M114.528 39.4772C113.388 42.0334 113.931 44.7607 115.742 45.5691C117.553 46.3769 119.947 44.9597 121.087 42.4034C122.228 39.8472 121.684 37.1199 119.872 36.3115C118.061 35.5036 115.669 36.9209 114.528 39.4772Z" fill="#7EB2EB"/>
<path d="M115.602 39.9561C114.729 41.9133 115.104 43.983 116.439 44.578C117.774 45.1736 119.564 44.0694 120.437 42.1128C121.31 40.1556 120.936 38.0859 119.601 37.4904C118.266 36.8948 116.476 37.999 115.603 39.9561H115.602Z" fill="#4971C3"/>
<path d="M115.767 40.0299C115.024 41.6965 115.247 43.416 116.267 43.8706C117.286 44.3253 118.716 43.3435 119.459 41.6768C120.203 40.0102 119.979 38.2907 118.959 37.8361C117.94 37.3814 116.511 38.3632 115.768 40.0299H115.767Z" fill="#3C5BB2"/>
<path d="M104.939 31.6206L111.084 29.9557L119.293 33.3563L113.049 35.1059L104.939 31.6206Z" fill="#7EB2EB"/>
<path d="M104.939 31.6205V33.3951L113.003 37.1535L113.049 35.1058L104.939 31.6205Z" fill="#3C5BB2"/>
<path d="M113.05 35.1059L119.294 33.3569L119.221 35.2265L118.182 35.5489C117.128 35.4109 116.357 35.7716 115.693 36.3202L113.002 37.1541L113.049 35.1065L113.05 35.1059Z" fill="#4971C3"/>
<path d="M104.838 32.5154L104.07 32.955V33.6416L105.719 34.3874L106.563 34.1514V33.3012L104.838 32.5154Z" fill="#2C343D"/>
<path d="M99.0979 44.6379L100.495 44.0237L98.5 43.0234C98.2141 42.8796 98.0401 42.5919 98.0471 42.2718C98.054 41.9517 98.2396 41.6716 98.5313 41.54L101.078 40.3941C101.194 40.3419 101.271 40.2253 101.273 40.0972L101.31 37.7764C101.342 35.8047 102.525 34.0481 104.303 33.2653" stroke="#005AB8" stroke-width="0.289955" stroke-linecap="round" stroke-linejoin="round"/>
<path d="M100.1 45.4643L101.573 44.8171C101.876 44.6837 102.07 44.3955 102.078 44.0644C102.086 43.7332 101.907 43.4352 101.612 43.2867L99.6562 42.3061L101.554 41.4524C102.079 41.2164 102.424 40.6922 102.433 40.1163L102.47 37.7955C102.496 36.1538 103.561 34.7058 105.121 34.1931L105.619 34.0087" stroke="#005AB8" stroke-width="0.289955" stroke-linecap="round" stroke-linejoin="round"/>
<path d="M99.8653 44.9336L101.338 44.2865C101.544 44.196 101.551 43.906 101.35 43.8051L98.7583 42.5055C98.5762 42.4145 98.582 42.153 98.7676 42.0695L101.314 40.9236C101.636 40.7786 101.845 40.4602 101.851 40.107L101.888 37.7862C101.918 35.8963 103.142 34.2326 104.938 33.6422" stroke="#005AB8" stroke-width="0.289955" stroke-linecap="round" stroke-linejoin="round"/>
<path d="M105.511 36.1607C104.983 37.9712 105.219 40.314 105.913 40.7449C105.913 40.7449 103.63 41.7708 102.836 42.1233C102.043 42.4759 102.122 40.7408 102.915 39.494C103.709 38.2472 105.512 36.1613 105.512 36.1613L105.511 36.1607Z" fill="#6E7479"/>
<path d="M109.998 45.7622L102.49 42.1233L105.513 36.1606L113.071 39.6018L109.998 45.7622Z" fill="#6E7479"/>
<path d="M113.07 39.6019C112.502 41.5428 112.756 44.0544 113.5 44.5166C113.5 44.5166 111.307 45.4062 110.457 45.7837C109.606 46.1612 109.435 44.512 110.285 43.1753C111.136 41.8386 113.07 39.6019 113.07 39.6019Z" fill="#43596D"/>
<path d="M88.9303 47.0197C86.9835 47.8675 75.7988 51.6213 75.7988 51.6213" stroke="#005AB8" stroke-width="0.289955" stroke-linecap="round" stroke-linejoin="round"/>
<path d="M88.5631 46.5645C86.6164 47.4123 75.4316 51.166 75.4316 51.166" stroke="#005AB8" stroke-width="0.289955" stroke-linecap="round" stroke-linejoin="round"/>
<path d="M88.1959 46.1098C86.2492 46.9576 75.0645 50.7114 75.0645 50.7114" stroke="#005AB8" stroke-width="0.289955" stroke-linecap="round" stroke-linejoin="round"/>
<path d="M38.1861 48.4689L63.6221 41.3041L66.4271 41.2322L98.4648 59.2593L97.991 60.9132L69.9489 70.9717L65.7109 70.6093L37.166 50.229L38.1861 48.4689Z" fill="#7EB2EB"/>
<path d="M97.9913 60.9132V61.3609L69.9492 71.9153V70.9717L97.9913 60.9132Z" fill="#4971C3"/>
<path d="M98.466 59.2593L98.4544 59.7006L97.9922 61.3609V60.9132L98.466 59.2593Z" fill="#3C5BB2"/>
<path d="M69.948 70.9718L65.7101 70.6094L65.6816 71.5262L69.948 71.9153V70.9718Z" fill="#3C5BB2"/>
<path d="M65.6825 71.5261L37.166 50.6534V50.2289L65.7109 70.6093L65.6825 71.5261Z" fill="#3C5BB2"/>
<path d="M57.0988 55.3607L50.6844 57.3654L40.0918 49.7657L46.2736 47.9836L57.0988 55.3607Z" fill="#3C5BB2"/>
<path d="M67.0619 52.2453L60.9421 54.1584L49.9824 46.9142L55.8963 45.2092L67.0619 52.2453Z" fill="#3C5BB2"/>
<path d="M76.5735 49.2715L70.7298 51.0982L59.4453 44.1857L65.1081 42.5532L76.5735 49.2715Z" fill="#3C5BB2"/>
<path d="M74.7231 67.3711L67.9695 69.7684L55.2793 60.6632L61.7888 58.557L74.7231 67.3711Z" fill="#3C5BB2"/>
<path d="M85.1754 63.6608L78.7616 65.9375L65.6875 57.2957L71.8902 55.2886L85.1754 63.6608Z" fill="#3C5BB2"/>
<path d="M95.1121 60.1333L89.0126 62.2987L75.6074 54.0866L81.5242 52.1717L95.1121 60.1333Z" fill="#3C5BB2"/>
<path d="M56.9406 55.0845L50.5262 57.0898L39.9336 49.4896L46.1154 47.7081L56.9406 55.0845Z" fill="#4971C3"/>
<path d="M66.9037 51.9698L60.7839 53.8829L49.8242 46.6381L55.7381 44.9337L66.9037 51.9698Z" fill="#4971C3"/>
<path d="M76.4153 48.9955L70.5716 50.8228L59.2871 43.9103L64.9499 42.2773L76.4153 48.9955Z" fill="#4971C3"/>
<path d="M74.5668 67.0951L67.8132 69.4925L55.123 60.3879L61.6325 58.2817L74.5668 67.0951Z" fill="#4971C3"/>
<path d="M85.0191 63.3848L78.6053 65.6621L65.5312 57.0203L71.734 55.0132L85.0191 63.3848Z" fill="#4971C3"/>
<path d="M94.9558 59.8577L88.8564 62.0231L75.4512 53.8104L81.368 51.8961L94.9558 59.8577Z" fill="#4971C3"/>
<path d="M51.1602 57.5097L60.5947 54.2848L53.6416 50.4273L78.4553 48.7769L80.8521 51.2438L71.5451 54.4953L77.5449 58.096L51.1955 60.2109L51.1602 57.5097Z" fill="#7EB2EB"/>
<path d="M71.6942 56.4891L68.6277 54.3602C68.4322 54.2245 68.4728 53.9241 68.6978 53.8453L78.1805 50.5322C78.5035 50.4192 78.4015 49.9384 78.0605 49.9662L60.0154 51.4584C59.7429 51.481 59.6483 51.8324 59.8734 51.9884L62.9382 54.1161C63.1348 54.2524 63.0924 54.5545 62.8663 54.6316L53.274 57.9099C52.9492 58.0206 53.0496 58.5037 53.3917 58.4764L71.5516 57.0191C71.8247 56.9971 71.9192 56.6451 71.6948 56.4891H71.6942Z" fill="#3C5BB2"/>
<path d="M71.6496 55.9242L68.6578 53.8476C68.4491 53.7026 68.4932 53.3825 68.7327 53.299L78.0385 50.048C78.3829 49.9279 78.2739 49.4147 77.9103 49.4449L60.0677 50.9202C59.7771 50.9439 59.6768 51.3191 59.9163 51.485L62.9063 53.5605C63.1157 53.7061 63.0704 54.0273 62.8298 54.1097L53.4178 57.3264C53.0716 57.4447 53.1789 57.9597 53.5431 57.9301L71.4971 56.489C71.7882 56.4658 71.8891 56.0906 71.6496 55.9242Z" fill="white"/>
<path d="M20.9824 50.49L34.1226 60.1681V61.7228L28.4285 64.1097V68.3935L24.6486 65.2301V60.7474L20.9824 52.5434V50.49Z" fill="#CA3879"/>
<path d="M39.1074 45.5236L52.8983 54.7465V56.3007L46.4827 58.1529V62.4367L42.7029 59.2733V54.7906L39.1074 47.5765V45.5236Z" fill="#CA3879"/>
<path d="M20.9824 50.4901L39.1081 45.5237L52.8989 54.7466L34.1226 60.1682L20.9824 50.4901Z" fill="#E68EC3"/>
<path d="M24.2871 50.9782L26.6386 52.7098L41.2158 48.7507V48.1685L24.2871 50.3965V50.9782Z" fill="#AA275B"/>
<path d="M26.6386 52.1283L24.2871 50.3967L38.6584 46.4585L41.2158 48.1686L26.6386 52.1283Z" fill="#CA3879"/>
<path d="M31.627 56.0153L33.9779 57.7469L48.5551 53.7873V53.2056L31.627 55.4336V56.0153Z" fill="#AA275B"/>
<path d="M33.9779 57.1653L31.627 55.4337L45.9977 51.4955L48.5551 53.2057L33.9779 57.1653Z" fill="#CA3879"/>
<path d="M27.6973 53.502L30.0488 55.2337L44.6254 51.274V50.6924L27.6973 52.9204V53.502Z" fill="#AA275B"/>
<path d="M30.0488 54.652L27.6973 52.9204L42.0686 48.9822L44.6254 50.6924L30.0488 54.652Z" fill="#CA3879"/>
<path d="M34.1211 60.168V61.7228L52.8974 56.3006V54.7465L34.1211 60.168Z" fill="#AA275B"/>
<path d="M28.4277 68.3935L46.4826 62.4367V58.3193L52.8982 56.3007L34.1219 61.7228L28.4277 64.1097V68.3935Z" fill="#7F1F46"/>
<path d="M23.2022 61.4566L22.4727 57.0064L23.3791 56.8695L24.3753 61.0153L23.2022 61.4566Z" fill="#AA275B"/>
<path d="M27.5223 64.6766C28.0493 64.3245 27.8366 63.081 27.0471 61.899C26.2577 60.717 25.1904 60.0442 24.6633 60.3963C24.1363 60.7483 24.349 61.9919 25.1384 63.1738C25.9279 64.3558 26.9952 65.0286 27.5223 64.6766Z" fill="#AA275B"/>
<path d="M24.8908 60.3131L23.6504 60.5497L26.3174 65.044L27.3641 64.7494L26.67 61.836L24.8908 60.3131Z" fill="#AA275B"/>
<path d="M26.4167 64.9899C26.9552 64.6302 26.7381 63.3599 25.9317 62.1526C25.1253 60.9454 24.0351 60.2583 23.4966 60.6179C22.958 60.9776 23.1752 62.2479 23.9815 63.4552C24.7879 64.6625 25.8782 65.3496 26.4167 64.9899Z" fill="#E68EC3"/>
<path d="M27.3703 60.3519C27.973 59.9493 27.7298 58.5272 26.827 57.1756C25.9242 55.824 24.7038 55.0546 24.1011 55.4572C23.4984 55.8598 23.7416 57.2818 24.6444 58.6334C25.5472 59.9851 26.7676 60.7544 27.3703 60.3519Z" fill="#AA275B"/>
<path d="M24.3638 55.3618L22.9453 55.632L25.9951 60.7717L27.192 60.4348L26.3987 57.1032L24.3638 55.3618Z" fill="#AA275B"/>
<path d="M26.1068 60.7109C26.7225 60.2996 26.4741 58.847 25.5519 57.4663C24.6298 56.0857 23.383 55.2998 22.7673 55.7111C22.1515 56.1224 22.3999 57.5751 23.3221 58.9557C24.2443 60.3364 25.491 61.1222 26.1068 60.7109Z" fill="#E68EC3"/>
<path d="M32.6412 62.2195C33.3795 61.7264 33.0817 59.9848 31.9761 58.3295C30.8705 56.6743 29.3758 55.7322 28.6375 56.2253C27.8993 56.7184 28.197 58.46 29.3026 60.1152C30.4082 61.7705 31.9029 62.7126 32.6412 62.2195Z" fill="#AA275B"/>
<path d="M28.9575 56.1082L27.2207 56.4393L30.9559 62.733L32.4213 62.3207L31.4494 58.2405L28.9575 56.1082Z" fill="#AA275B"/>
<path d="M31.0917 62.6587C31.846 62.155 31.542 60.376 30.4128 58.6853C29.2835 56.9947 27.7566 56.0325 27.0024 56.5363C26.2482 57.0401 26.5521 58.819 27.6814 60.5097C28.8106 62.2004 30.3375 63.1625 31.0917 62.6587Z" fill="#E68EC3"/>
<path d="M24.5005 55.3542L29.3502 56.1237L27.6842 56.4235L23.1348 55.5885L24.5005 55.3542Z" fill="#AA275B"/>
<path d="M30.9565 62.7332L26.3184 65.0441L27.5223 64.6782L32.5669 62.2652L30.9565 62.7332Z" fill="#AA275B"/>
<path d="M29.6847 60.8137C29.9844 60.6136 29.8636 59.9068 29.4149 59.2351C28.9663 58.5634 28.3597 58.1812 28.0601 58.3813C27.7605 58.5814 27.8813 59.2882 28.3299 59.9598C28.7785 60.6315 29.3851 61.0138 29.6847 60.8137Z" fill="#CA3879"/>
<mask id="mask0_2755_61786" style="mask-type:luminance" maskUnits="userSpaceOnUse" x="27" y="58" width="3" height="3">
<path d="M29.6867 60.8135C29.9863 60.6134 29.8655 59.9066 29.4169 59.2349C28.9682 58.5633 28.3617 58.181 28.062 58.3811C27.7624 58.5812 27.8832 59.288 28.3319 59.9597C28.7805 60.6313 29.3871 61.0136 29.6867 60.8135Z" fill="white"/>
</mask>
<g mask="url(#mask0_2755_61786)">
<path d="M30.3031 60.6391C30.5963 60.4433 30.478 59.7514 30.0388 59.0939C29.5996 58.4363 29.0058 58.062 28.7126 58.2579C28.4194 58.4537 28.5377 59.1456 28.9769 59.8031C29.4161 60.4607 30.0099 60.835 30.3031 60.6391Z" fill="#AA275B"/>
</g>
<path d="M24.935 59.208C25.1806 59.044 25.0814 58.4645 24.7135 57.9137C24.3457 57.363 23.8484 57.0495 23.6028 57.2135C23.3573 57.3775 23.4564 57.9569 23.8243 58.5077C24.1922 59.0585 24.6895 59.372 24.935 59.208Z" fill="#CA3879"/>
<mask id="mask1_2755_61786" style="mask-type:luminance" maskUnits="userSpaceOnUse" x="23" y="57" width="3" height="3">
<path d="M24.937 59.2078C25.1825 59.0438 25.0834 58.4643 24.7155 57.9136C24.3476 57.3628 23.8503 57.0493 23.6048 57.2133C23.3592 57.3773 23.4584 57.9567 23.8263 58.5075C24.1941 59.0583 24.6914 59.3718 24.937 59.2078Z" fill="white"/>
</mask>
<g mask="url(#mask1_2755_61786)">
<path d="M25.4405 59.0649C25.681 58.9043 25.5841 58.3371 25.224 57.798C24.864 57.259 24.3771 56.9522 24.1366 57.1128C23.8961 57.2735 23.993 57.8407 24.3531 58.3797C24.7131 58.9188 25.2 59.2255 25.4405 59.0649Z" fill="#AA275B"/>
</g>
<path d="M25.4444 63.6232C25.6463 63.4883 25.5649 63.0122 25.2627 62.5597C24.9604 62.1072 24.5518 61.8497 24.3499 61.9845C24.148 62.1194 24.2294 62.5955 24.5316 63.048C24.8338 63.5005 25.2425 63.758 25.4444 63.6232Z" fill="#CA3879"/>
<mask id="mask2_2755_61786" style="mask-type:luminance" maskUnits="userSpaceOnUse" x="24" y="61" width="2" height="3">
<path d="M25.4463 63.6237C25.6482 63.4888 25.5669 63.0127 25.2646 62.5602C24.9624 62.1077 24.5537 61.8502 24.3519 61.985C24.15 62.1199 24.2313 62.596 24.5336 63.0485C24.8358 63.501 25.2445 63.7585 25.4463 63.6237Z" fill="white"/>
</mask>
<g mask="url(#mask2_2755_61786)">
<path d="M25.8607 63.506C26.0584 63.374 25.9788 62.9079 25.6829 62.465C25.3871 62.0221 24.9871 61.7701 24.7895 61.9021C24.5918 62.034 24.6715 62.5001 24.9673 62.943C25.2631 63.3859 25.6631 63.638 25.8607 63.506Z" fill="#AA275B"/>
</g>
<path d="M115.35 52.8859L117.623 54.0452L128.856 46.2964L129.677 41.5649L118.729 45.3094L115.35 52.8859Z" fill="#566575"/>
<path d="M116.452 53.4492L119.786 45.1867L131.362 41.0171L131.355 38.7166L118.565 43.0497L114.594 52.5016L116.452 53.4492Z" fill="#5D6E81"/>
<path d="M114.593 52.5015L117.826 44.8055C118.295 43.6886 119.22 42.8263 120.367 42.436L129.693 39.279L127.343 38.3389L117.173 41.598C115.945 41.9918 114.95 42.9011 114.449 44.0887L111.553 50.9508L114.593 52.5015Z" fill="#E6E7E8"/>
<path d="M30.1179 81.969L34.0444 80.6909L33.7742 71.1833L29.6934 72.5571L30.1179 81.969Z" fill="#9FA8B6"/>
<path d="M29.8125 75.2183L50.8151 68.3713C51.7505 68.0703 52.7705 68.1909 53.6102 68.7018L61.5689 73.5429V69.7677L52.1703 64.9893L33.7733 71.1833L29.8125 75.2183Z" fill="#9FA8B6"/>
<path d="M29.6937 72.5571L50.5936 65.521C51.6033 65.1812 52.7068 65.2618 53.6561 65.7443L61.5702 69.7683L56.1004 65.811L51.8491 63.8126C50.847 63.3417 49.7011 63.2779 48.6527 63.6351L27.6953 70.7796L29.6937 72.5571Z" fill="#E6E7E8"/>
<path d="M15.7459 56.0383L33.7742 71.1832L29.6934 72.5571L12.2363 57.0306L15.7459 56.0383Z" fill="#E6E7E8"/>
<path d="M29.6933 72.5571L30.1178 81.969L12.8818 65.8313L12.2363 57.0306L29.6933 72.5571Z" fill="#8D9195"/>
<path d="M131.007 30.4036C129.224 29.2989 127.268 29.0681 127.303 31.9265C127.337 34.7843 127.303 37.2646 127.303 37.2646V44.9333C127.303 47.1329 126.701 47.4054 124.755 48.2538C122.808 49.1017 111.623 52.8554 111.623 52.8554" stroke="#CA3879" stroke-width="1.44977" stroke-miterlimit="10"/>
<path d="M136.228 31.7716L133.32 33.5502C133.032 33.7259 132.797 33.5572 132.797 33.1744V29.3047C132.797 28.922 133.032 28.465 133.32 28.2887L136.228 26.5101C136.516 26.3344 136.751 26.5032 136.751 26.8859V30.7556C136.751 31.1384 136.516 31.5953 136.228 31.7716Z" fill="#2C343D"/>
<path d="M136.459 26.4406L131.156 28.1884C130.958 28.2539 130.767 28.3403 130.587 28.4459L130.064 28.7532C129.892 28.8541 129.787 29.038 129.787 29.2369V31.1378C129.787 31.3617 129.9 31.5704 130.087 31.6934L132.994 33.5978L134.422 32.1376L136.459 26.4406Z" fill="#2C343D"/>
<path d="M84.7242 51.5276L83.1816 50.66C83.2373 50.6415 89.3994 48.5793 91.294 47.7541L91.8727 49.0832C89.9179 49.9346 84.9544 51.451 84.7236 51.5276H84.7242Z" fill="#CA3879"/>
<path d="M114.808 50.1335L81.7891 33.5179L80.3121 33.5986L69.9439 36.6993L69.3965 37.5889L99.9635 54.4585L103.673 54.8122L114.54 51.0631L114.808 50.1335Z" fill="#E68EC3"/>
<path d="M103.674 59.0026V54.8122L114.54 51.0631V55.2535L103.674 59.0026Z" fill="#AA275B"/>
<path d="M103.673 59.0027V54.8122L99.9635 54.4585L69.3965 37.5889V41.7794L99.9635 58.6489L103.673 59.0027Z" fill="#CA3879"/>
<path d="M114.539 55.2536L114.808 54.3234V50.1335L114.539 51.0631V55.2536Z" fill="#AA275B"/>
<path d="M71.8301 37.7102L74.1312 38.9884L84.1752 35.8771V35.5681L71.8301 37.4017V37.7102Z" fill="#AA275B"/>
<path d="M71.8301 37.4017L81.9153 34.4285L84.1752 35.568L74.1312 38.6792L71.8301 37.4017Z" fill="#CA3879"/>
<path d="M76.375 40.0396L78.6761 41.3178L88.7201 38.2066V37.8975L76.375 39.7311V40.0396Z" fill="#AA275B"/>
<path d="M76.375 39.7312L86.4602 36.758L88.7201 37.8975L78.6761 41.0087L76.375 39.7312Z" fill="#CA3879"/>
<path d="M80.9082 42.3501L83.2093 43.6282L93.2533 40.517V40.2079L80.9082 42.0416V42.3501Z" fill="#AA275B"/>
<path d="M80.9082 42.0416L90.9934 39.0684L93.2533 40.2079L83.2093 43.3191L80.9082 42.0416Z" fill="#CA3879"/>
<path d="M90.0137 46.9765L92.3148 48.2541L102.359 45.1429V44.8344L90.0137 46.6674V46.9765Z" fill="#AA275B"/>
<path d="M90.0137 46.6674L100.099 43.6942L102.359 44.8343L92.3148 47.945L90.0137 46.6674Z" fill="#CA3879"/>
<path d="M94.5547 49.2979L96.8558 50.5754L106.9 47.4648V47.1557L94.5547 48.9888V49.2979Z" fill="#AA275B"/>
<path d="M94.5547 48.9888L104.639 46.0162L106.9 47.1557L96.8558 50.2669L94.5547 48.9888Z" fill="#CA3879"/>
<path d="M99.0176 51.5781L101.319 52.8557L111.363 49.7445V49.4354L99.0176 51.269V51.5781Z" fill="#AA275B"/>
<path d="M99.0176 51.269L109.103 48.2958L111.363 49.4354L101.319 52.5466L99.0176 51.269Z" fill="#CA3879"/>
<path d="M96.682 42.1888C96.682 42.1888 93.8689 44.5746 91.9407 45.1719C89.9742 45.7808 87.5177 45.8202 86.511 45.2612C86.2199 45.0994 86.0853 44.9069 86.09 44.7016V44.3739L96.6826 41.8849V42.1888H96.682Z" fill="#AA275B"/>
<path d="M88.2448 42.9485C90.1255 42.3941 96.6819 41.8849 96.6819 41.8849C96.6819 41.8849 93.8688 44.2707 91.9406 44.868C89.9741 45.4769 87.5176 45.5163 86.5109 44.9573C85.5285 44.4116 86.3294 43.5139 88.2454 42.9491L88.2448 42.9485Z" fill="white"/>
<path d="M62.3594 67.9927L57.5844 63.9437L38.1035 87.9897L42.8785 92.0386L62.3594 67.9927Z" fill="#2C343D"/>
<path d="M39.1962 68.9617C33.8169 75.6016 33.3275 84.1211 38.1025 87.9897C42.878 91.8588 51.1116 89.6123 56.4908 82.9723C61.8706 76.3323 62.3595 67.8123 57.5834 63.9431C52.8078 60.0746 44.5754 62.3206 39.1962 68.9611V68.9617Z" fill="#2C343D"/>
<path d="M44.347 73.3145C38.9678 79.9545 38.3102 88.3377 42.8781 92.0386C47.4467 95.7396 55.512 93.3574 60.8907 86.7174C66.2705 80.0774 66.927 71.6937 62.359 67.9927C57.7911 64.2917 49.7269 66.6746 44.347 73.3145Z" fill="#6E7479"/>
<path d="M46.406 75.0108C42.553 79.7667 42.0822 85.7716 45.354 88.4218C48.6264 91.0726 54.4029 89.3659 58.2558 84.6106C62.1087 79.8548 62.5796 73.8498 59.3072 71.1991C56.0354 68.5483 50.2595 70.255 46.406 75.0108Z" fill="#C8CACC"/>
<path d="M46.6411 75.2014C42.9569 79.749 42.4193 85.4211 45.4418 87.8695C48.4643 90.3179 53.9015 88.6159 57.5857 84.0682C61.2704 79.52 61.8069 73.8479 58.7844 71.3995C55.7625 68.9511 50.3252 70.6532 46.6411 75.2014Z" fill="#C8CACC"/>
<path d="M46.906 75.4166C43.7368 79.3281 43.2711 84.2034 45.865 86.305C48.4595 88.4066 53.1325 86.9394 56.3011 83.0279C59.4703 79.1159 59.936 74.2406 57.3414 72.139C54.7475 70.0374 50.0752 71.5045 46.906 75.4166Z" fill="#2C343D"/>
<path d="M60.2312 77.0769L59.0256 76.3897L55.9985 76.7481L58.6376 71.9557L55.4261 70.5198L54.159 70.6845L51.5471 75.6578L48.4069 79.32L44.2414 81.2656L43.8633 82.6115L45.4128 86.6547L49.5261 83.8299L49.3742 87.2346L50.407 88.3712L54.667 86.3212L54.3272 81.519L58.8366 81.6814L60.2312 77.0769Z" fill="#6E7479"/>
<path d="M55.4261 70.5198C56.6978 70.6393 57.7724 71.1096 58.6376 71.9557L55.4058 77.8238L60.2312 77.0769C60.1303 78.5684 59.5632 80.3255 58.8366 81.6814L54.3266 81.519L54.6664 86.3212C53.4909 87.2096 51.9681 88.0337 50.4064 88.3718L50.6099 83.0853L45.4122 86.6552C44.282 85.8126 44.0135 84.2614 43.8633 82.6121L49.4246 80.1985L45.5636 76.8687C46.6776 75.1191 47.918 73.7447 49.3046 72.7154L52.3108 76.6617L55.4261 70.5204V70.5198Z" fill="#C8CACC"/>
<path d="M50.5162 78.2987C49.3361 79.7555 49.1917 81.5955 50.1938 82.4074C51.1965 83.2199 52.9663 82.6968 54.1465 81.2395C55.3272 79.7821 55.471 77.9427 54.4689 77.1308C53.4662 76.3189 51.6969 76.8414 50.5162 78.2987Z" fill="#6E7479"/>
<path d="M51.0368 78.7174C50.4523 79.4394 50.3804 80.3505 50.8773 80.7529C51.3737 81.1554 52.2506 80.8962 52.8351 80.1747C53.4197 79.4528 53.491 78.5417 52.9946 78.1393C52.4982 77.7368 51.6214 77.996 51.0368 78.718V78.7174Z" fill="#C8CACC"/>
<path d="M137.565 38.0321L132.856 35.7908L122.301 59.3073L127.009 61.5486L137.565 38.0321Z" fill="#2C343D"/>
<path d="M119.122 43.7536C116.208 50.2468 117.631 57.211 122.301 59.3074C126.971 61.4037 133.121 57.8384 136.036 51.3452C138.951 44.8514 137.527 37.8872 132.856 35.7909C128.186 33.6945 122.037 37.2592 119.122 43.7536Z" fill="#2C343D"/>
<path d="M124.197 46.1597C121.283 52.6529 122.542 59.5434 127.009 61.5487C131.476 63.5541 137.462 59.9151 140.376 53.4219C143.291 46.9281 142.032 40.0376 137.564 38.0323C133.096 36.0269 127.111 39.6659 124.197 46.1597H124.197Z" fill="#6E7479"/>
<path d="M126.217 47.0857C124.129 51.7366 124.966 56.6427 128.086 58.0431C131.207 59.4436 135.429 56.8085 137.517 52.1576C139.604 47.5062 138.767 42.6001 135.647 41.1997C132.527 39.7992 128.305 42.4343 126.217 47.0857Z" fill="#C8CACC"/>
<path d="M126.708 47.3057C124.991 51.1313 125.595 55.1292 128.058 56.2345C130.522 57.3404 133.911 55.135 135.628 51.3094C137.345 47.4837 136.74 43.4858 134.277 42.3805C131.814 41.2752 128.425 43.48 126.708 47.3057Z" fill="#2C343D"/>
<path d="M137.599 45.7068L136.559 45.4284L134.301 46.3708L135.433 41.9971L132.651 41.5117L131.68 41.9113L130.592 46.4908L128.82 50.1373L125.846 52.6872L125.82 53.8528L127.914 56.652L130.617 53.43L131.168 56.1121L132.195 56.7309L135.08 54.1224L133.916 50.4922L137.384 49.5893L137.599 45.7068Z" fill="#6E7479"/>
<path d="M132.652 41.5115C133.675 41.3428 134.604 41.4988 135.434 41.9969L134.047 47.3506L137.599 45.7066C137.793 46.8913 137.685 48.3788 137.384 49.5891L133.916 50.492L135.08 54.1222C134.35 55.0849 133.337 56.0864 132.195 56.7307L131.324 52.5866L127.914 56.6512C126.831 56.2766 126.289 55.122 125.82 53.852L129.812 50.5952L126.001 48.834C126.547 47.1569 127.274 45.757 128.19 44.61L131.398 47.121L132.651 41.5109L132.652 41.5115Z" fill="#C8CACC"/>
<path d="M130.229 48.8567C129.59 50.2815 129.866 51.7933 130.846 52.2335C131.827 52.6736 133.14 51.8751 133.78 50.4503C134.419 49.0254 134.143 47.513 133.163 47.0734C132.183 46.6333 130.869 47.4318 130.229 48.8567Z" fill="#6E7479"/>
<path d="M130.737 49.0823C130.42 49.7881 130.557 50.5373 131.043 50.7548C131.528 50.9728 132.179 50.5773 132.496 49.8716C132.812 49.1658 132.676 48.4166 132.19 48.1986C131.705 47.9805 131.054 48.376 130.738 49.0818L130.737 49.0823Z" fill="#C8CACC"/>
<g opacity="0.41">
<path opacity="0.5" d="M148.52 23.1736C146.924 25.245 143.281 27.2532 143.281 27.2532L143.583 23.9419L147.661 17.9097C148.219 19.5393 148.543 21.2761 148.52 23.1736H148.52Z" fill="black"/>
<path opacity="0.5" d="M10.2539 61.3798C11.5894 58.8757 30.5792 58.4193 43.7031 58.359C43.7031 58.359 35.3878 64.281 26.6944 64.6133C18.0009 64.945 10.2539 61.3803 10.2539 61.3803V61.3798Z" fill="white"/>
<path opacity="0.5" d="M1.96184 45.5111C1.31003 49.0161 1.68059 51.6651 3.54848 54.197C2.77314 47.1152 7.13116 40.2647 8.62906 37.7496C5.76953 40.1638 3.1147 42.6336 1.96184 45.5117V45.5111Z" fill="white"/>
<path d="M28.1075 27.8599C28.1075 27.8599 47.0009 10.4776 66.4981 4.43267C85.9981 -1.61289 96.2016 0.0497121 111.086 2.31658C125.97 4.58345 137.737 8.85332 145.899 14.7481C148.053 17.3757 148.519 20.3402 148.518 23.1736C150.907 25.5362 149.527 34.7933 148.721 37.8355C146.922 44.6181 142.524 47.2062 142.524 47.2062C142.524 47.2062 143.282 32.4765 132.699 35.8707C122.117 39.2649 120.91 59.6 120.91 59.6C120.91 59.6 118.08 61.2105 113.202 61.7161C108.669 62.1859 78.5903 73.0226 76.3235 75.2901C74.0566 77.557 66.6372 79.8256 66.6372 79.8256C68.7533 69.85 64.8366 60.6584 56.1461 62.6985C35.4828 67.55 37.5554 88.7707 37.5554 88.7707C37.5554 88.7707 30.579 88.577 24.1792 86.9567C15.2236 84.6898 8.62832 76.7486 5.14596 72.22C1.62765 67.6451 -0.933231 61.8866 0.60063 50.2287C2.11187 38.7419 14.5057 33.6027 28.1086 27.8593L28.1075 27.8599Z" stroke="#2C343D" stroke-width="0.289955" stroke-linecap="round" stroke-linejoin="round"/>
<path d="M52.8496 10.3309C56.5216 14.0992 66.6027 18.3383 80.3553 21.1781" stroke="#231F20" stroke-width="0.115982" stroke-linecap="round" stroke-linejoin="round"/>
<path d="M28.1084 27.8598C25.4559 30.1951 26.2295 35.0113 33.5874 40.3667C39.1418 44.4099 47.2448 48.3683 60.3398 48.5284C60.3398 48.5284 70.2307 27.1622 84.7917 17.8842C94.5162 11.6873 109.622 6.4803 135.965 9.14499" stroke="#231F20" stroke-width="0.115982" stroke-linecap="round" stroke-linejoin="round"/>
<path d="M64.4205 48.529C64.4205 48.529 72.6935 27.7561 87.8854 18.7158C101.601 10.5542 114.071 9.19373 133.606 11.0831C133.606 11.0831 132.925 15.9827 129.884 18.0733C115.374 28.0489 64.4199 48.529 64.4199 48.529H64.4205Z" stroke="#2C343D" stroke-width="0.289955" stroke-linecap="round" stroke-linejoin="round"/>
<path d="M135.965 9.14562C135.965 9.14562 141.95 8.06061 138.668 7.00227C114.088 -0.922771 102.429 0.139044 95.7344 0.255026" stroke="#2C343D" stroke-width="0.289955" stroke-linecap="round" stroke-linejoin="round"/>
<path d="M148.52 23.1736C146.924 25.245 143.281 27.2532 143.281 27.2532L143.583 23.9419L147.661 17.9097C148.219 19.5393 148.543 21.2761 148.52 23.1736H148.52Z" stroke="#2C343D" stroke-width="0.289955" stroke-linecap="round" stroke-linejoin="round"/>
<path d="M122.98 10.3767L127.58 19.5619L129.934 23.4995C129.934 23.4995 131.528 29.3717 129.488 32.999C126.685 37.981 122.661 41.2807 120.616 48.3399C118.571 55.3997 120.205 55.8213 117.61 57.4085C115.015 58.9958 70.7682 75.2187 70.7682 75.2187C69.0679 67.982 69.4889 60.1185 66.6015 50.8156L64.4199 48.529" stroke="#231F20" stroke-width="0.115982" stroke-linecap="round" stroke-linejoin="round"/>
<path d="M145.899 14.7487C131.899 22.4006 103.691 39.6024 43.7031 58.3596" stroke="#231F20" stroke-width="0.115982" stroke-linecap="round" stroke-linejoin="round"/>
<path d="M97.25 14.123L102.285 32.1727L104.73 35.7542C105.623 51.0992 102.495 56.7318 104.574 62.5576" stroke="#231F20" stroke-width="0.115982" stroke-linecap="round" stroke-linejoin="round"/>
<path d="M9.03115 54.8922C9.48932 53.2731 9.25642 51.7895 8.51095 51.5786C7.76547 51.3676 6.78972 52.5092 6.33155 54.1283C5.87338 55.7475 6.10628 57.2311 6.85175 57.442C7.59723 57.653 8.57298 56.5114 9.03115 54.8922Z" fill="#A6A8AB" stroke="#231F20" stroke-width="0.289955" stroke-linecap="round" stroke-linejoin="round"/>
<path d="M10.2539 61.3798C11.5894 58.8757 30.5792 58.4193 43.7031 58.359C43.7031 58.359 35.3878 64.281 26.6944 64.6133C18.0009 64.945 10.2539 61.3803 10.2539 61.3803V61.3798Z" stroke="#2C343D" stroke-width="0.289955" stroke-linecap="round" stroke-linejoin="round"/>
<path d="M1.96184 45.5111C1.31003 49.0161 1.68059 51.6651 3.54848 54.197C2.77314 47.1152 7.13116 40.2647 8.62906 37.7496C5.76953 40.1638 3.1147 42.6336 1.96184 45.5117V45.5111Z" stroke="#2C343D" stroke-width="0.289955" stroke-linecap="round" stroke-linejoin="round"/>
<path d="M0.494141 61.4969C0.494141 61.4969 9.6973 71.393 12.2385 74.1099C17.4049 79.6347 20.8594 85.6513 20.8594 85.6513" stroke="#231F20" stroke-width="0.115982" stroke-linecap="round" stroke-linejoin="round"/>
<path d="M18.6655 77.4236L20.7155 81.0335C21.2153 81.9138 22.4192 82.071 23.1285 81.3484L27.3635 77.031C28.4851 75.888 27.5381 73.9708 25.9486 74.1668L19.9303 74.9085C18.7328 75.0564 18.0699 76.374 18.6655 77.4236Z" stroke="#231F20" stroke-width="0.115982" stroke-linecap="round" stroke-linejoin="round"/>
<path d="M60.596 9.66405C64.3648 11.7262 70.3118 13.706 78.2385 15.5577C79.853 15.9346 81.5475 15.6916 82.9979 14.889C93.9321 8.83594 110.178 6.0199 118.038 6.17125C124.868 6.30289 102.319 1.56155 91.8061 1.20549C81.8148 1.05297 69.7545 4.29641 60.6887 8.02812C59.983 8.31866 59.9262 9.29755 60.596 9.66405Z" stroke="#231F20" stroke-width="0.115982" stroke-linecap="round" stroke-linejoin="round"/>
<path d="M143.279 27.2533C143.279 27.2533 142.977 31.5092 142.372 33.0211C141.767 34.5323 140.1 37.4817 140.1 37.4817" stroke="#231F20" stroke-width="0.115982" stroke-linecap="round" stroke-linejoin="round"/>
</g>
</g>
<defs>
<clipPath id="clip0_2755_61786">
<rect width="150" height="94.0057" fill="white"/>
</clipPath>
</defs>
</svg>
