<svg width="437" height="120" viewBox="0 0 437 120" fill="none" xmlns="http://www.w3.org/2000/svg">
<path d="M410.062 19.5923C410.062 23.7252 406.726 27.0751 402.611 27.0751C398.496 27.0751 395.161 23.7252 395.161 19.5923C395.161 15.4593 398.496 12.1094 402.611 12.1094C406.726 12.1094 410.062 15.4593 410.062 19.5923ZM402.611 32.3143C398.496 32.3143 395.161 35.6643 395.161 39.7972C395.161 43.9302 398.496 47.2801 402.611 47.2801C406.726 47.2801 410.062 43.9302 410.062 39.7972C410.062 35.6643 406.726 32.3143 402.611 32.3143ZM402.611 52.5169C398.496 52.5169 395.161 55.8668 395.161 59.9998C395.161 64.1327 398.496 67.4827 402.611 67.4827C406.726 67.4827 410.062 64.1327 410.062 59.9998C410.062 55.8668 406.726 52.5169 402.611 52.5169ZM402.611 72.7195C398.496 72.7195 395.161 76.0694 395.161 80.2024C395.161 84.3353 398.496 87.6852 402.611 87.6852C406.726 87.6852 410.062 84.3353 410.062 80.2024C410.062 76.0694 406.726 72.7195 402.611 72.7195ZM402.611 92.9244C398.496 92.9244 395.161 96.2744 395.161 100.407C395.161 104.54 398.496 107.89 402.611 107.89C406.726 107.89 410.062 104.54 410.062 100.407C410.062 96.2744 406.726 92.9244 402.611 92.9244Z" fill="url(#paint0_linear_8396_706)"/>
<path d="M316.254 33.5044C319.921 33.5044 323.4 34.2611 326.597 35.8654V49.3681C323.965 47.0071 320.014 45.2136 315.971 45.2136C307.979 45.2136 301.869 51.7291 301.869 60.1339C301.869 68.5386 307.979 74.9584 316.161 74.7692C320.205 74.7692 324.058 73.3516 326.599 70.8039V84.1174C323.214 85.6283 319.735 86.6676 315.973 86.6676C301.211 86.6676 289.271 74.7692 289.271 60.1339C289.271 45.4986 301.494 33.5068 316.257 33.5068L316.254 33.5044ZM78.8404 58.7163C78.8404 74.4435 66.7125 86.9501 39.5385 90.0869V106.779H26.9385V60.0381C26.9385 43.3243 38.6921 33.5044 53.4545 33.5044C68.2169 33.5044 78.8404 44.5527 78.8404 58.7163ZM66.2404 59.188C66.2404 51.4442 60.4113 45.592 52.9824 45.592C45.5536 45.592 39.5361 50.8791 39.5361 60.0381V78.0641C49.628 77.7767 66.2381 72.0993 66.2381 59.188H66.2404ZM194.114 60.1315C194.114 74.7668 205.961 86.6652 220.816 86.6652C224.483 86.6652 228.057 85.6259 231.349 84.115V70.8015C228.906 73.2559 224.955 74.7668 221.007 74.7668C212.827 74.956 206.714 68.4405 206.714 60.1315C206.714 51.8225 212.825 45.2112 220.816 45.2112C224.86 45.2112 228.715 47.0047 231.349 49.3657V35.863C228.152 34.2587 224.674 33.502 221.193 33.502C206.242 33.502 194.114 45.4004 194.114 60.1291V60.1315ZM380.284 85.1542L358.393 59.2072L377.841 35.013H362.42L343.991 59.5664V13.3928H331.298V85.1566H343.991V60.2799L364.959 85.1566H380.284V85.1542ZM190.731 62.4925V85.1542H178.131V79.7187C174.252 84.1078 168.755 86.6652 162.43 86.6652C148.983 86.6652 137.983 74.7668 137.983 60.3207C137.983 45.8745 149.265 33.5044 164.592 33.5044C181.705 33.5044 190.731 46.1571 190.731 62.4925ZM178.038 60.1315C178.038 51.7267 172.209 45.2112 164.311 45.2112C156.412 45.2112 150.299 51.7267 150.299 60.1315C150.299 68.5363 156.412 74.956 164.311 74.956C172.209 74.956 178.038 68.5339 178.038 60.1315ZM286.26 60.1315C286.26 74.7668 274.225 86.6652 259.463 86.6652C244.7 86.6652 232.761 74.7668 232.761 60.1315C232.761 45.4962 244.889 33.5044 259.463 33.5044C274.037 33.5044 286.26 45.4962 286.26 60.1315ZM273.66 60.1315C273.66 51.6333 267.454 45.2112 259.463 45.2112C251.471 45.2112 245.361 51.7267 245.361 60.1315C245.361 68.5363 251.471 74.956 259.463 74.956C267.454 74.956 273.66 68.4405 273.66 60.1315ZM134.505 59.5664C134.505 60.7948 134.409 62.8708 134.223 65.0426H94.9808C96.8857 71.2061 102.503 75.0517 110.437 75.0517C116.454 75.0517 122.191 72.8799 127.078 68.7254V81.8498C122.846 84.8717 116.924 86.6652 110.06 86.6652C93.7006 86.6652 82.0399 75.806 82.0399 60.5098C82.0399 45.2136 93.9819 33.5044 108.742 33.5044C123.502 33.5044 134.6 45.1178 134.505 59.5664ZM95.0762 54.9402H121.435C119.809 49.0784 115.026 45.1202 108.649 45.1202C102.271 45.1202 96.9763 49.0856 95.0786 54.9402H95.0762Z" fill="black"/>
<defs>
<linearGradient id="paint0_linear_8396_706" x1="402.611" y1="11.9106" x2="402.611" y2="107.936" gradientUnits="userSpaceOnUse">
<stop stop-color="#FFDC23"/>
<stop offset="0.16" stop-color="#FF8700"/>
<stop offset="0.21" stop-color="#FF5401"/>
<stop offset="0.37" stop-color="#D9005A"/>
<stop offset="0.42" stop-color="#C814C8"/>
<stop offset="0.58" stop-color="#8250FF"/>
<stop offset="0.63" stop-color="#6E64FF"/>
<stop offset="0.79" stop-color="#00C8FF"/>
<stop offset="0.84" stop-color="#00CC99"/>
<stop offset="0.99" stop-color="#00A637"/>
</linearGradient>
</defs>
</svg>
