<svg width="350" height="120" viewBox="0 0 350 120" fill="none" xmlns="http://www.w3.org/2000/svg">
<path d="M99.5799 21.6001C94.1439 21.6001 89.0209 24.6852 87.1646 29.6109C86.4262 31.5701 86.1196 33.5289 86.273 35.6177H91.9117C94.246 35.6177 95.6636 36.8315 95.6636 37.6515C89.7557 39.9732 87.392 43.118 87.7378 45.5914L92.9677 82.9938L111.43 40.2449C112.671 37.3789 112.927 34.9714 112.036 31.4705C111.197 28.1725 109.195 24.9414 104.767 22.7954C103.218 22.0879 101.264 21.6001 99.5799 21.6001Z" fill="#6E55DC"/>
<path d="M68.2495 21.6001C66.5657 21.6001 64.6115 21.9873 63.0623 22.6947C58.6342 24.8408 56.5323 28.1726 55.693 31.4706C54.8021 34.9715 55.3771 37.9897 56.3998 40.3456L74.9123 82.9939L81.55 36.5165C81.8809 34.1997 81.6143 31.7864 80.7559 29.6108C78.8241 24.7146 74.0295 21.6001 68.2495 21.6001Z" fill="#EF1541"/>
<path d="M35.8477 42.4745C34.406 43.3492 32.9536 44.7399 32.0437 46.1856C29.5117 50.2088 29.3171 54.8362 30.273 57.8065C31.2898 60.9662 33.2903 63.176 35.7872 64.8589L73.2624 90.111L55.0557 48.4347C54.1196 46.2918 52.4781 44.366 50.5785 43.0133C46.376 40.0205 40.3593 39.7374 35.8477 42.4745Z" fill="#FF7112"/>
<path d="M20.2885 78.3491C19.5421 79.8667 19.1385 81.8509 19.183 83.5611C19.307 88.3205 20.9326 91.5733 24.1458 94.1196C26.1114 95.6774 29.6251 96.9783 32.6311 96.9785L76.3071 96.9815L39.9592 72.5066C38.7148 71.6687 36.0338 70.2039 32.5036 70.1778C29.535 70.1559 26.8837 71.1568 24.7732 72.796C22.0399 74.919 21.0933 76.7128 20.2885 78.3491Z" fill="#FCCC12"/>
<path d="M131.966 42.4745C133.407 43.3492 134.86 44.7399 135.77 46.1856C138.302 50.2088 138.496 54.8362 137.54 57.8065C136.524 60.9662 134.523 63.176 132.026 64.8589L94.551 90.111L112.758 48.4347C113.694 46.2918 115.335 44.366 117.235 43.0133C121.437 40.0205 127.454 39.7374 131.966 42.4745Z" fill="#069DE0"/>
<path d="M147.561 78.3491C148.308 79.8667 148.711 81.8509 148.667 83.5611C148.543 88.3205 146.917 91.5733 143.704 94.1196C141.738 95.6774 138.225 96.9783 135.219 96.9785L91.4414 96.9815L127.84 72.5065C129.085 71.6694 131.795 70.1777 135.508 70.1777C138.477 70.1777 141.077 71.1567 143.188 72.7959C145.921 74.919 146.756 76.7128 147.561 78.3491Z" fill="#05AC3F"/>
<path d="M306.221 42.1334C290.456 42.1334 277.181 54.6899 277.181 69.9903C277.181 76.0997 278.866 82.3077 284.139 88.3924C288.878 93.8613 296.138 98.078 306.221 98.4001C318.889 98.4001 324.826 93.3618 330.824 88.2911L322.778 78.7753C320.61 80.5662 318.891 82.239 316.503 83.5666C313.669 85.1427 311.061 85.8764 306.221 85.8764C296.081 85.8764 289.49 77.9385 289.49 69.9903C289.49 61.9481 296.928 54.5896 306.221 54.5896C312.295 54.59 316.474 56.9762 320.035 60.8803L328.866 52.1285C322.685 45.4011 315.25 42.1334 306.221 42.1334ZM161.148 43.5273V96.9815H172.756V62.2249L198.453 96.9815H210.816V43.5273H199.27V78.2083L173.582 43.5273H161.148ZM221.352 43.5273V96.9815H252.768C256.512 96.9809 261.529 95.9483 264.647 93.7076C266.53 92.3537 268.069 90.8603 269.191 88.3845C270.44 85.6273 270.909 82.6897 270.909 80.478C270.909 75.0708 268.844 71.4131 262.996 68.1979C264.37 67.3936 265.865 66.3775 267.056 64.8828C268.321 63.2938 269.054 61.5117 269.054 58.7003C269.054 48.7151 260.606 43.5273 252.768 43.5273H221.352ZM232.532 53.5642H250.145C255.619 53.5642 257.064 55.8418 257.064 58.7007C257.064 60.3479 256.476 61.4668 255.305 62.398C254.541 63.0054 252.943 63.6245 251.738 63.6245L232.532 63.6322V53.5642ZM232.532 73.6693H250.093C252.971 73.6693 255.12 74.1028 256.687 75.2394C258.186 76.3259 258.965 78.0152 258.965 80.1809C258.965 82.1452 258.22 83.7336 256.817 84.8309C255.189 86.1047 253.355 86.5345 250.266 86.5345H232.532V73.6693Z" fill="black"/>
</svg>
