<svg xmlns="http://www.w3.org/2000/svg" viewBox="0 0 492.1 68.3" fill="#ED312F">
	<path d="M287.9,20.4l0.1-0.2L287.9,20.4c-2.6-1.7-6.2-2.6-9.8-2.6c-8.2,0-14,4.1-17.9,9.7c-3.8,5.7-5.6,13-5.6,19.6
		c0,4.7,0.7,9.1,3.6,13.1c1.4,1.9,4.9,6.6,16,6.6c7.7,0,11.4-2,13.4-3.2l0.3-0.5c0.4-1.7,1.7-9.4,2.2-11.3l-0.4-0.3
		c-3.9,3.1-8.1,5.4-13,5.4c-3.2,0-5.7-0.8-7.4-2.2c-1.7-1.5-2.5-3.7-2.5-6.3c0-1,0.1-1.9,0.2-2.9l0-0.2l0.2,0
		c7.6-0.2,11.4-0.3,17.7-0.3c2.1,0,4.4,0,7.2,0l0.5-0.3c0.6-2.9,1.3-6.3,1.3-10.4C294,30.6,293.6,24.1,287.9,20.4z M282.9,36.4l0,0.2
		l-7.4,0.1l-7.3,0.1l0.1-0.2l0-0.1c0.1-0.5,0.3-1.1,0.5-1.7c0.5-1.6,1.2-3.4,2.5-5c0.2-0.3,0.5-0.6,0.7-0.8c2.3-2.5,4.4-2.9,5.8-2.9
		c2,0,3.4,0.8,4.3,2c0.2,0.2,0.3,0.4,0.4,0.6c0.5,0.8,0.7,1.7,0.8,2.6c0.1,0.3,0.1,0.7,0.1,1C283.4,33.7,283.2,35.1,282.9,36.4z
		M254.2,28.1l-0.5,0.5l-7.3-0.2L243,44.3c-0.5,2-1.5,7-1.5,8.6c0,1.5,0.5,2.5,1.3,3.1c0.8,0.6,1.8,0.8,2.6,0.8c2,0,2.7-0.6,4.1-1.1
		l0.2,0.2l-1.8,9.1l-0.6,0.6c-2.5,0.5-4.4,1-7,1c-6.8,0-11.7-2.3-11.7-10.2c0-3.7,1.5-10.4,2.6-15.4l2.7-12.6l-5.7,0.2l-0.3-0.5
		l1.7-8.9l0.5-0.3h5.8l2.3-11.7l0.5-0.5c5.8-1.5,7.5-2.2,12.8-4l0.3,0.3l-1.8,7.6l-1.8,8.5l7.5-0.2l0.2,0.4L254.2,28.1z M344.1,13.1
		l-0.4,0.4l-19.2,0l-3.1,16l16.8-0.5l0.3,0.4c-1.4,4.6-1.7,5.9-2.6,9.9l-0.4,0.4l-16,0l-2.1,11.1l-2.7,14.5l-0.3,0.3L300.4,66
		l-0.2-0.4l2.4-12.3l3.6-17.4c2.8-13.5,3.6-17.8,6.2-32.5l0.4-0.4H333l12.8-0.3L346,3L344.1,13.1z M371.2,20.9
		c-2.7-1.9-6.9-2.9-12.8-2.9c-2.9,0-5.8,0.3-8.7,0.8c-2.6,0.5-4.2,0.9-5.6,1.3l-0.4,0.4l-1.9,9.7l0.6,0.4c1.2-0.6,3-1.3,5.4-2.1
		c2.4-0.9,4.6-1.3,6.6-1.3c2.9,0,5.2,0.4,6.7,1.2c1.6,0.8,2.7,2.7,2.7,4.7c0,0.5,0,0.9-0.1,1.3c-0.1,0.4-0.1,0.6-0.1,0.8l0,0.2
		c0,0-0.9,0.1-2,0.2c-0.7,0.1-1.5,0.2-2.5,0.3c-1.6,0.2-3.5,0.4-5.1,0.7c-3.9,0.6-14.8,2.3-18,9.6c-3.4,6-2.8,13.9,0.5,17.8
		c1.2,1.4,3,2.6,5.4,3.1v0c0.1,0,0.5,0.1,0.6,0.1c9.4,1.5,16.2-6.7,16.2-6.7l-1,5.1l0.4,0.4l10.6-0.4l0.4-0.4l6.2-31.2
		c0.1-0.7,0.2-1.4,0.3-2.3c0.1-0.9,0.1-1.6,0.1-2.2C375.7,25.6,373.9,22.8,371.2,20.9z M360.4,52.2c0,0-2.5,4-6.2,5.4
		c-3.7,1.4-6.3,0.3-7.3-1.1c-0.8-1.1-2.6-4.6,0.7-8.5c3.3-4,14.4-4.2,14.4-4.2L360.4,52.2z M411.7,17.4l-2.6,13.4l-0.5,0.5
		c-0.7-0.1-1.7-0.2-2.8-0.2c-3.5,0-8.5,1.1-12.3,6.3l0,0L388,65.4l-0.4,0.3L376.1,66l-0.3-0.3l9.1-46.8l0.5-0.5l11.5-1.1l0.5,0.5
		l-1.3,6.8l0.6-0.5c2.4-2.2,4.5-3.7,6.9-5c2.4-1.3,4.7-2,7.1-2c0.2,0,0.5,0,0.7,0L411.7,17.4z M473.8,29.2c0,2.8-0.6,5.8-1.3,8.6
		l-5.4,27.5l-0.4,0.3l-12.1,0.4l-0.3-0.4c0,0,6.2-30.4,6.2-31.9c0-1.4-0.7-5.1-4.6-5.1c-3,0-6.2,3.1-6.2,3.1l-6.6,33.6l-0.4,0.3
		l-5.2,0.2v0l-4.7,0.2l-2.3,0.1l-0.1-0.2l-0.1-0.2c0,0,0.9-4.6,2.1-10.4h0c1.8-9,4.1-20.6,4.1-21.6c0-1.4-0.7-5.1-4.6-5.1
		c-3,0-6.2,3.1-6.2,3.1l-6.6,33.6l-0.4,0.3l-1.9,0.1l-10.3,0.3l-0.3-0.4l9.1-46.8l0.5-0.5l12.1-1.1l0.5,0.5l-1.3,6.6
		c0,0,5.8-6.4,13.3-6.6c7-0.1,8.4,6.6,8.4,6.6s6.9-6.7,14.3-6.6C466.9,17.9,473.8,19.5,473.8,29.2z M220.1,20.9
		c-2.7-1.9-6.9-2.9-12.8-2.9c-2.9,0-5.8,0.3-8.7,0.8c-2.6,0.5-4.2,0.9-5.6,1.3l-0.4,0.4l-1.9,9.7l0.6,0.4c1.2-0.6,3-1.3,5.4-2.1
		c2.4-0.9,4.6-1.3,6.6-1.3c2.9,0,5.2,0.4,6.7,1.2c1.6,0.8,2.7,2.7,2.7,4.7c0,0.5,0,0.9-0.1,1.3c-0.1,0.4-0.1,0.6-0.1,0.8l0,0.2
		c0,0-1,0.1-2,0.2c-0.7,0.1-1.5,0.2-2.5,0.3c-1.6,0.2-3.5,0.4-5.1,0.7c-3.9,0.6-14.7,2.3-18,9.6c-3.4,6-2.8,13.9,0.5,17.8
		c1.2,1.4,3,2.6,5.4,3.1l0,0c0.1,0,0.5,0.1,0.6,0.1c9.4,1.5,16.2-6.7,16.2-6.7l-1,5.1l0.4,0.4l10.6-0.4l0.4-0.4l6.2-31.2
		c0.1-0.7,0.2-1.4,0.3-2.3c0.1-0.9,0.1-1.6,0.1-2.2C224.6,25.6,222.8,22.8,220.1,20.9z M209.2,52.2c0,0-2.5,4-6.2,5.4
		c-3.7,1.4-6.3,0.3-7.3-1.1c-0.8-1.1-2.6-4.6,0.7-8.5c3.3-4,14.4-4.2,14.4-4.2L209.2,52.2z M183.7,28.1l-0.5,0.5l-7.3-0.2l-3.4,15.9
		c-0.5,2-1.5,7-1.5,8.6c0,1.5,0.5,2.5,1.3,3.1c0.8,0.6,1.8,0.8,2.6,0.8c2,0,2.7-0.6,4.1-1.1l0.2,0.2l-1.8,9.1l-0.6,0.6
		c-2.5,0.5-4.4,1-7,1c-6.8,0-11.7-2.3-11.7-10.2c0-3.7,1.5-10.4,2.6-15.4l2.7-12.6l-5.7,0.2l-0.3-0.5l1.7-8.9l0.5-0.3h5.8l2.3-11.7
		l0.5-0.5c5.8-1.5,7.5-2.2,12.8-4l0.3,0.3l-1.8,7.6l-1.8,8.5l7.5-0.2l0.2,0.4L183.7,28.1z M156.4,6.5l-2.2,11.4l-0.5,0.2
		c-0.9-1.2-1.4-1.7-2.6-2.7c-2.7-2.1-6-3.3-9.3-3.3c-2.6,0-4.7,0.8-6.2,2.1c-1.5,1.3-2.3,3.3-2.3,5.4c0,4,2.8,6,7.6,8.9l1.9,1.1
		c4.1,2.7,10.5,6.8,10.5,16.2c0,10.6-6.8,21.3-23.2,21.3c-4,0-7.9-0.7-11.7-2.1c-2.6-1-3.8-1.8-5.3-3l-0.1-0.7l2.2-11.1l0.5-0.2
		c1,1.3,2.2,2.3,4.1,3.5c3.9,2.6,7.7,2.9,9.3,2.9c5.8,0,10.3-3.3,10.3-8.4c0-4.6-3.6-6.9-7.4-9.1l-2.6-1.6c-4.1-2.7-9.8-6.4-9.8-15.5
		c0-3.5,1-8.6,4.1-12.7c4.1-5.5,10.6-7.4,17.1-7.4c8.4,0,13.2,3,15.5,4.4L156.4,6.5z M45.2,49.7c0,3.1-2.1,5.9-5.5,8
		c-3.4,2.1-8.2,3.4-13.5,3.4c-5.3,0-10-1.3-13.4-3.4c-3.4-2.1-5.4-4.9-5.4-8c0-3.1,2-5.9,5.4-8c3.4-2.1,8.1-3.3,13.4-3.3
		c5.3,0,10,1.3,13.5,3.3C43.1,43.7,45.2,46.5,45.2,49.7z M32.9,18.6c0-3.1,2-5.9,5.4-8c3.4-2.1,8.1-3.3,13.4-3.3
		c5.3,0,10,1.3,13.5,3.3c3.4,2.1,5.5,4.9,5.5,8c0,3.1-2.1,5.9-5.5,8C61.7,28.7,57,30,51.7,30c-5.3,0-10-1.3-13.4-3.4
		C34.9,24.5,32.9,21.7,32.9,18.6z M96.1,49.7c0,3.1-2.1,5.9-5.5,8c-3.4,2.1-8.2,3.4-13.5,3.4c-5.3,0-10-1.3-13.4-3.4
		c-3.4-2.1-5.4-4.9-5.4-8c0-3.1,2-5.9,5.4-8c3.4-2.1,8.1-3.3,13.4-3.3c5.3,0,10,1.3,13.5,3.3C94.1,43.7,96.1,46.5,96.1,49.7z
		M77.2,31.1c-2.4,0-4.6,0.2-6.8,0.6c4.7-3.4,7.6-8,7.6-13.2C78,8.2,66.3,0,51.7,0C37.2,0,25.5,8.2,25.5,18.5c0,5.1,2.9,9.8,7.6,13.2
		c-2.2-0.4-4.5-0.6-6.9-0.6C11.6,31.1,0,39.3,0,49.6c0,10.3,11.6,18.7,26.1,18.7c12.4,0,22.8-6.1,25.6-14.2
		c2.8,8.2,13,14.2,25.4,14.2c14.6,0,26.4-8.4,26.4-18.7C103.5,39.3,91.7,31.1,77.2,31.1z M30.5,18.5c0-4.5,3.5-7.7,5.5-9.1
		C40.1,6.5,45.7,5,51.7,5c6,0,11.6,1.6,15.8,4.5c2.1,1.5,5.6,4.6,5.6,9.1c0,7.6-9.9,13.7-21.4,13.7c-6,0-11.5-1.6-15.6-4.5
		C32.5,25.2,30.5,21.9,30.5,18.5z M26.1,63.4c-6,0-11.5-1.6-15.6-4.5C6.9,56.3,5,53,5,49.6c0-4.5,3.5-7.6,5.5-9.1
		c4.1-2.9,9.7-4.5,15.7-4.5c6,0,11.6,1.6,15.8,4.5c2.1,1.5,5.6,4.6,5.6,9.1C47.5,57.2,37.7,63.4,26.1,63.4z M45,36.6
		c2.1,0.4,4.4,0.6,6.7,0.6c2.4,0,4.6-0.2,6.8-0.6c-3.2,2.3-5.6,5.3-6.7,8.6C50.6,41.9,48.2,39,45,36.6z M77.1,63.4
		c-6,0-11.5-1.6-15.6-4.5c-3.5-2.5-5.5-5.8-5.5-9.2c0-4.5,3.5-7.6,5.5-9.1c4.1-2.9,9.7-4.5,15.7-4.5c6,0,11.6,1.6,15.8,4.5
		c2.1,1.5,5.6,4.6,5.6,9.1C98.5,57.2,88.6,63.4,77.1,63.4z"/>
	<path class="st0" d="M492.1,24.9c0,4-2.9,7-6.7,7c-3.8,0-6.7-3-6.7-7c0-4.1,2.8-7.1,6.7-7.1C489.2,17.8,492.1,20.9,492.1,24.9z
		 M479.6,24.8c0,3.4,2.6,6.2,5.8,6.2s5.8-2.8,5.8-6.2c0-1.6-0.6-3.3-1.7-4.4c-1-1.1-2.6-1.8-4.1-1.8
		C482.1,18.7,479.6,21.3,479.6,24.8z M485.1,20.9c0.8,0,1.2,0,1.7,0.2c0.8,0.3,1.4,1.1,1.4,2c0,1-0.6,1.7-1.6,2l1.6,3.8h-1.1
		l-1.5-3.6l-0.1,0h-0.7h-0.8l-0.1,0v3.6h-1v-8H485.1z M485,24.4c1,0,1.4-0.1,1.7-0.3c0.3-0.2,0.5-0.6,0.5-1.1c0-0.6-0.3-1-0.8-1.2
		c-0.3-0.1-0.7-0.2-1.6-0.2H484v2.7H485z"/>
</svg>
