<svg xmlns="http://www.w3.org/2000/svg" xmlns:xlink="http://www.w3.org/1999/xlink" viewBox="0 0 18 18" data-source-page="mcu_article"><path d="M9,14a5,5,0,1,1,5-5A5,5,0,0,1,9,14ZM9,6a3,3,0,1,0,3,3A3,3,0,0,0,9,6Zm.2-4a.64.64,0,0,0,.18-.06l.18-.09.15-.12A1.05,1.05,0,0,0,10,1,1,1,0,0,0,9.92.62,1,1,0,0,0,9.71.29L9.56.17,9.38.08A.64.64,0,0,0,9.2,0a1,1,0,0,0-.58.06,1.15,1.15,0,0,0-.33.21,1,1,0,0,0-.21.33A1,1,0,0,0,8,1a1,1,0,0,0,.08.38,1.15,1.15,0,0,0,.21.33A1.05,1.05,0,0,0,9,2Zm.51,15.73a1.15,1.15,0,0,0,.21-.33A1,1,0,0,0,10,17a1,1,0,0,0-1.71-.71A1.05,1.05,0,0,0,8,17a1,1,0,0,0,.08.38,1.15,1.15,0,0,0,.21.33,1,1,0,0,0,1.42,0Zm8-8a1.58,1.58,0,0,0,.12-.15.76.76,0,0,0,.09-.18A.64.64,0,0,0,18,9.2,1.5,1.5,0,0,0,18,9a1,1,0,1,0-2,0,1.5,1.5,0,0,0,0,.2.64.64,0,0,0,.06.18.76.76,0,0,0,.09.18l.12.15a1,1,0,0,0,1.42,0Zm-16,0,.12-.15a.76.76,0,0,0,.09-.18A.64.64,0,0,0,2,9.2,1.5,1.5,0,0,0,2,9a.84.84,0,0,0-.08-.38,1,1,0,0,0-.21-.33,1,1,0,0,0-1.42,0,1,1,0,0,0-.21.33A1,1,0,0,0,0,9a1.5,1.5,0,0,0,0,.2.64.64,0,0,0,.06.18.76.76,0,0,0,.09.18l.12.15a1,1,0,0,0,.33.21A.84.84,0,0,0,1,10,1.05,1.05,0,0,0,1.71,9.71ZM14.85,4.32,15,4.27a1,1,0,0,0,.17-.1.44.44,0,0,0,.15-.12l.13-.15a1.4,1.4,0,0,0,.09-.17,1.39,1.39,0,0,0,.06-.19,1.36,1.36,0,0,0,0-.2A1,1,0,0,0,15.58,3a.87.87,0,0,0-.22-.32.64.64,0,0,0-.15-.13A.91.91,0,0,0,15,2.42l-.19-.06a1,1,0,0,0-.58.06.87.87,0,0,0-.32.22,1,1,0,0,0-.29.7.68.68,0,0,0,0,.2,1.33,1.33,0,0,0,.05.19l.1.17a.79.79,0,0,0,.12.15,1,1,0,0,0,.32.22,1.07,1.07,0,0,0,.39.07A.62.62,0,0,0,14.85,4.32Zm-10.8,11a1,1,0,0,0,.29-.7,1.07,1.07,0,0,0-.07-.39A1,1,0,0,0,4.05,14a1,1,0,0,0-1.41,0,.87.87,0,0,0-.22.32,1.09,1.09,0,0,0-.08.39,1,1,0,0,0,.08.38.87.87,0,0,0,.22.32,1,1,0,0,0,1.41,0Zm11.31,0a1,1,0,0,0,.3-.7,1.09,1.09,0,0,0-.08-.39.87.87,0,0,0-.22-.32A1,1,0,0,0,14,14a1,1,0,0,0-.22.32,1.07,1.07,0,0,0-.07.39,1,1,0,0,0,.07.38,1,1,0,0,0,.22.32,1,1,0,0,0,1.41,0ZM4.05,4.05a.79.79,0,0,0,.12-.15l.1-.17a1.33,1.33,0,0,0,.05-.19.68.68,0,0,0,0-.2,1,1,0,0,0-.29-.7.87.87,0,0,0-.32-.22,1,1,0,0,0-.77,0,.87.87,0,0,0-.32.22A.87.87,0,0,0,2.42,3a1,1,0,0,0-.08.38,1.36,1.36,0,0,0,0,.2l.06.19a1.4,1.4,0,0,0,.09.17l.13.15A1,1,0,0,0,3,4.27a1,1,0,0,0,1.09-.22Z"></path></svg>