<svg xmlns="http://www.w3.org/2000/svg" xmlns:xlink="http://www.w3.org/1999/xlink" viewBox="0 0 18 18" data-source-page="harry_potter"><path d="M15,0H7C5.35,0,4,1.35,4,3v4c0,1.65,1.35,3,3,3h5.59l3.7,3.71C16.48,13.9,16.74,14,17,14c0.13,0,0.26-0.02,0.38-0.08 C17.76,13.77,18,13.4,18,13V3C18,1.35,16.65,0,15,0z M16,10.59l-2.29-2.3C13.52,8.11,13.27,8,13,8H7C6.45,8,6,7.55,6,7V3 c0-0.55,0.45-1,1-1h8c0.55,0,1,0.45,1,1V10.59z"></path><path d="M12,13c0,0.55-0.45,1-1,1H5.41l-3.7,3.71c-0.09,0.09-0.21,0.16-0.33,0.21S1.13,18,1,18s-0.26-0.03-0.38-0.08 c-0.25-0.1-0.44-0.29-0.54-0.54C0.03,17.26,0,17.13,0,17V5c0-0.55,0.45-1,1-1s1,0.45,1,1v9.59l2.29-2.3C4.48,12.11,4.73,12,5,12h6 C11.55,12,12,12.45,12,13z"></path></svg>