<svg xmlns="http://www.w3.org/2000/svg" xmlns:xlink="http://www.w3.org/1999/xlink" viewBox="0 0 12 12" data-source-page="mcu_article"><path d="M4.29276 7.70676C4.48776 7.90176 4.74376 7.99976 4.99976 7.99976C5.25576 7.99976 5.51176 7.90176 5.70676 7.70676L8.70676 4.70676C9.09776 4.31576 9.09776 3.68376 8.70676 3.29276C8.31576 2.90176 7.68376 2.90176 7.29276 3.29276L4.99976 5.58576L4.70676 5.29276C4.31576 4.90176 3.68376 4.90176 3.29276 5.29276C2.90176 5.68376 2.90176 6.31576 3.29276 6.70676L4.29276 7.70676Z" clip-rule="evenodd"></path><path d="M6 0C2.68629 0 0 2.68629 0 6C0 9.31371 2.68629 12 6 12C9.31371 12 12 9.31371 12 6C12 2.68629 9.31371 0 6 0ZM6 2C3.79086 2 2 3.79086 2 6C2 8.20914 3.79086 10 6 10C8.20914 10 10 8.20914 10 6C10 3.79086 8.20914 2 6 2Z" clip-rule="evenodd"></path></svg>