<svg xmlns="http://www.w3.org/2000/svg" xmlns:xlink="http://www.w3.org/1999/xlink" viewBox="0 0 18 18" data-source-page="harry_potter"><path d="M9 0C13.9706 0 18 4.02944 18 9C18 13.9706 13.9706 18 9 18C4.02944 18 0 13.9706 0 9C0 4.02944 4.02944 0 9 0ZM9 2C5.13401 2 2 5.13401 2 9C2 12.866 5.13401 16 9 16C12.866 16 16 12.866 16 9C16 5.13401 12.866 2 9 2ZM11.293 6.29297C11.6839 5.90205 12.316 5.90222 12.707 6.29297C13.098 6.68397 13.098 7.31603 12.707 7.70703L8.70703 11.707C8.51203 11.902 8.256 12 8 12C7.74408 11.9999 7.48791 11.902 7.29297 11.707L5.29297 9.70703C4.90222 9.31601 4.90205 8.68389 5.29297 8.29297C5.68389 7.90205 6.31601 7.90222 6.70703 8.29297L8 9.58594L11.293 6.29297Z"></path></svg>