<svg xmlns="http://www.w3.org/2000/svg" xmlns:xlink="http://www.w3.org/1999/xlink" viewBox="0 0 18 18" data-source-page="harry_potter"><path d="M9 17C6.97016 16.9786 5.02436 16.1863 3.55687 14.7837C2.08938 13.3812 1.20995 11.4732 1.09679 9.44639C0.983621 7.41959 1.64518 5.42556 2.94741 3.86835C4.24965 2.31113 6.09516 1.3072 8.11 1.05996C8.30858 1.03515 8.51004 1.07049 8.68832 1.16141C8.86659 1.25233 9.01349 1.39465 9.11 1.56996C9.204 1.74498 9.24374 1.94403 9.22414 2.14172C9.20455 2.33942 9.12652 2.5268 9 2.67996C8.3519 3.47677 7.99868 4.47286 8 5.49996C8.00265 6.69263 8.4776 7.83568 9.32094 8.67903C10.1643 9.52237 11.3073 9.99732 12.5 9.99996C13.5271 10.0013 14.5232 9.64806 15.32 8.99996C15.4742 8.87503 15.6621 8.7988 15.8598 8.78099C16.0574 8.76319 16.2559 8.8046 16.43 8.89996C16.6053 8.99648 16.7476 9.14337 16.8386 9.32165C16.9295 9.49993 16.9648 9.70138 16.94 9.89996C16.719 11.8518 15.7877 13.6541 14.3234 14.9635C12.8591 16.2728 10.9643 16.9977 9 17V17ZM6.27 3.64996C5.42973 4.08218 4.70343 4.70674 4.15023 5.47279C3.59703 6.23884 3.23257 7.12471 3.08655 8.05828C2.94053 8.99184 3.01706 9.94669 3.30992 10.8451C3.60278 11.7435 4.10368 12.56 4.77183 13.2281C5.43999 13.8963 6.2565 14.3972 7.15489 14.69C8.05328 14.9829 9.00813 15.0594 9.94169 14.9134C10.8753 14.7674 11.7611 14.4029 12.5272 13.8497C13.2932 13.2965 13.9178 12.5702 14.35 11.73C13.7498 11.9098 13.1265 12.0007 12.5 12C10.7769 11.9973 9.12515 11.3116 7.90673 10.0932C6.68832 8.87482 6.00265 7.22306 6 5.49996C5.99925 4.87342 6.09021 4.25015 6.27 3.64996V3.64996Z"></path></svg>