<svg xmlns="http://www.w3.org/2000/svg" xmlns:xlink="http://www.w3.org/1999/xlink" viewBox="0 0 512 512" data-source-page="401k_calc"><title>Email</title> <path d="M10.688 121.963C80.958 171.556 204.26 258.804 240.5 286.008C245.365 289.68 250.583 291.547 256 291.547C261.406 291.547 266.615 289.698 271.469 286.043C307.74 258.813 431.042 171.556 501.313 121.963C505.688 118.882 506.355 113.465 502.813 109.697C494.625 100.992 482.417 96 469.333 96H42.667C29.584 96 17.375 100.992 9.188 109.698C5.646 113.465 6.313 118.882 10.688 121.963Z"></path> <path d="M505.813 148.838C502.032 147.372 497.584 147.883 494.438 150.123C416.51 205.175 317.052 275.74 285.76 299.237C268.197 312.449 243.822 312.449 226.218 299.22C192.864 274.177 81.176 195.053 17.562 150.123C14.395 147.883 9.937 147.388 6.187 148.837C2.417 150.297 0 153.439 0 156.902V380.444C0 400.054 19.135 416 42.667 416H469.334C492.865 416 512 400.054 512 380.444V156.902C512 153.439 509.583 150.288 505.813 148.838Z"></path></svg>