<svg xmlns="http://www.w3.org/2000/svg" xmlns:xlink="http://www.w3.org/1999/xlink" viewBox="0 0 500 500" data-source-page="401k_calc"><title>Reddit</title> <circle cx="67" cy="247" r="53" fill="#F8F8F8"></circle> <circle cx="432" cy="247" r="53" fill="#F8F8F8"></circle> <ellipse cx="251" cy="313" rx="199" ry="147" fill="#F8F8F8"></ellipse> <ellipse cx="403" cy="88" rx="41" ry="47" fill="#F8F8F8"></ellipse> <path d="M175.562 319.948C194.168 319.948 209.251 303.929 209.251 284.169C209.251 264.409 194.168 248.39 175.562 248.39C156.956 248.39 141.872 264.409 141.872 284.169C141.872 303.929 156.956 319.948 175.562 319.948Z" fill="#D80000"></path> <path d="M500 255.222C500 211.011 467.229 175.047 426.948 175.047C412.813 175.047 399.692 179.591 388.521 187.198C353.865 165.825 310.16 152.546 262.431 150.729L289.94 66.851L346.924 81.3411C346.734 83.3438 346.369 85.2624 346.369 87.3156C346.369 120.671 371.929 147.817 403.353 147.817C434.729 147.817 460.336 120.688 460.336 87.3156C460.336 53.9429 434.744 26.814 403.353 26.814C382.863 26.814 365.052 38.4263 355.021 55.6764L273.539 34.9762L235.508 150.897C188.001 153.489 144.756 167.558 110.75 189.503C111.431 188.999 112.018 188.426 112.699 187.921C101.258 179.81 87.6775 175.03 73.0672 175.03C32.7699 175.03 0.0155029 210.978 0.0155029 255.205C0.0155029 284.774 14.8318 310.422 36.6523 324.273C45.5896 406.939 138.37 472.186 251.355 472.186C365.068 472.186 458.324 406.064 466.215 322.641C486.467 308.453 500 283.563 500 255.222ZM403.321 53.7746C420.736 53.7746 434.919 68.8369 434.919 87.3492C434.919 105.845 420.72 120.907 403.321 120.907C385.843 120.907 371.692 105.845 371.692 87.3492C371.692 68.8201 385.89 53.7746 403.321 53.7746ZM73.0513 201.974C78.8036 201.974 84.223 203.304 89.3256 205.39C61.7529 228.867 43.2285 258.319 37.6506 290.833C30.0285 281.375 25.3221 268.921 25.3221 255.222C25.3221 225.872 46.7464 201.974 73.0513 201.974ZM251.323 445.293C146.404 445.293 61.0715 385.178 61.0715 311.281C61.0715 237.366 146.404 177.269 251.323 177.269C356.226 177.269 441.542 237.383 441.542 311.281C441.542 385.162 356.226 445.293 251.323 445.293ZM464.377 287.905C458.149 256.266 439.673 227.639 412.528 204.751C417.107 203.102 421.893 201.974 426.948 201.974C453.237 201.974 474.645 225.855 474.645 255.222C474.614 267.575 470.716 278.867 464.377 287.905Z"></path> <path d="M320.429 319.948C339.035 319.948 354.118 303.929 354.118 284.169C354.118 264.409 339.035 248.39 320.429 248.39C301.823 248.39 286.739 264.409 286.739 284.169C286.739 303.929 301.823 319.948 320.429 319.948Z" fill="#D80000"></path> <path d="M315.009 363.704C243.637 413.738 186.051 366.599 183.484 364.462C178.017 359.8 170.062 360.725 165.689 366.498C161.315 372.321 162.139 380.769 167.59 385.431C168.066 385.852 200.963 413.317 248.74 413.317C272.493 413.317 299.955 406.501 328.954 386.188C334.801 382.082 336.417 373.735 332.583 367.558C328.7 361.331 320.84 359.598 315.009 363.704Z"></path></svg>