<svg xmlns="http://www.w3.org/2000/svg" xmlns:xlink="http://www.w3.org/1999/xlink" viewBox="0 0 30 24" data-source-page="player"><path fill="none" stroke="#000" style="stroke: var(--color1, #000)" stroke-linejoin="miter" stroke-linecap="round" stroke-miterlimit="4" stroke-width="2.4" d="M12.124 17.861h-7.324c-1.767 0-3.2-1.649-3.2-3.683v-9.209c0-2.034 1.433-3.683 3.2-3.683h20.8c1.767 0 3.2 1.649 3.2 3.683v9.209c0 2.456-1.067 3.683-3.2 3.683s-4.942-0.015-8.427-0.046l-3.534 4.27"></path>
            <path d="M11.2 9.6c0 0.884-0.716 1.6-1.6 1.6s-1.6-0.716-1.6-1.6c0-0.884 0.716-1.6 1.6-1.6s1.6 0.716 1.6 1.6z"></path>
            <path d="M16.8 9.6c0 0.884-0.716 1.6-1.6 1.6s-1.6-0.716-1.6-1.6c0-0.884 0.716-1.6 1.6-1.6s1.6 0.716 1.6 1.6z"></path>
            <path d="M22.4 9.6c0 0.884-0.716 1.6-1.6 1.6s-1.6-0.716-1.6-1.6c0-0.884 0.716-1.6 1.6-1.6s1.6 0.716 1.6 1.6z"></path></svg>