<svg xmlns="http://www.w3.org/2000/svg" xmlns:xlink="http://www.w3.org/1999/xlink" viewBox="0 0 24 24" data-source-page="player"><path d="M18.957 2.531v-2.581h-0.868v2.581h-12.059v-2.581h-0.868v2.581h-5.161v21.537h24.118v-21.537zM0.868 8.561v-5.161h4.293v1.712h0.868v-1.712h12.059v1.712h0.868v-1.712h4.317v5.161zM23.274 23.2h-22.405v-13.771h22.405zM18.522 13.722v-2.146h-2.146v2.146zM14.639 13.722v-2.146h-2.146v2.146zM6.898 13.722v-2.146h-2.171v2.146zM10.781 13.722v-2.146h-2.171v2.146zM18.522 17.605v-2.146h-2.146v2.146zM14.639 17.605v-2.146h-2.146v2.146zM10.781 17.605v-2.146h-2.171v2.146zM6.898 17.605v-2.146h-2.171v2.146zM14.639 21.054v-2.146h-2.146v2.146zM10.781 21.054v-2.146h-2.171v2.146zM6.898 21.054v-2.146h-2.171v2.146z"></path></svg>