<svg xmlns="http://www.w3.org/2000/svg" xmlns:xlink="http://www.w3.org/1999/xlink" viewBox="0 0 24 24" data-source-page="player"><path d="M20.814 0.168h-20.814v15.653c0.096 5.113 3.714 8.055 7.5 8.2h16.569v-20.597c0-1.567-1.663-3.256-3.256-3.256zM6.392 6.342h-3.594v-3.377h3.594zM6.392 21.15c-1.688-0.773-3.57-2.34-3.594-5.403v-7.476h3.594zM12.638 21.222h-3.521v-12.951h6.415c2.003 0 3.4 0.313 4.245 0.964 0.989 0.747 1.495 2.146 1.495 4.123v7.863h-3.594v-7.838c0-0.627-0.096-1.086-0.313-1.374-0.386-0.457-1.11-0.699-2.171-0.699h-2.556z"></path></svg>