<svg xmlns="http://www.w3.org/2000/svg" xmlns:xlink="http://www.w3.org/1999/xlink" viewBox="0 0 32 32" data-source-page="player"><path d="M29.714 30.857h-27.429c-0.629 0-1.257-0.286-1.657-0.8s-0.629-1.143-0.629-1.829v-24.457c0-0.686 0.229-1.314 0.629-1.829s1.029-0.8 1.657-0.8h27.429c0.629 0 1.257 0.286 1.657 0.8s0.629 1.143 0.629 1.829v24.457c0 0.686-0.229 1.314-0.629 1.829s-1.029 0.8-1.657 0.8zM2.286 2.343c-0.286 0-0.571 0.114-0.743 0.4-0.229 0.286-0.343 0.629-0.343 1.029v24.457c0 0.4 0.114 0.743 0.343 1.086 0.171 0.229 0.457 0.343 0.743 0.343h27.429c0.286 0 0.571-0.114 0.743-0.4 0.229-0.286 0.343-0.686 0.343-1.086v-24.4c0-0.4-0.114-0.743-0.343-1.086-0.171-0.229-0.457-0.343-0.743-0.343h-27.429z"></path>
            <path d="M26.971 9.486l-0.971 0.914h-4.971l-0.971-0.914 0.571-0.571h5.714l0.629 0.571zM26.971 22.629l-0.571 0.514h-5.714l-0.686-0.514 1.029-1.029h4.971l0.971 1.029zM19.2 15.143v-4.857l0.571-0.571 0.971 0.971v4.057l-0.971 0.971-0.571-0.571zM27.771 16.857v4.914l-0.571 0.514-0.914-0.914v-4.114l0.971-0.971 0.514 0.571zM26.286 14.8v-4.057l0.971-0.971 0.571 0.571v4.857l-0.571 0.571-0.971-0.971zM26.171 15.257l0.8 0.743-0.8 0.743h-5.371l-0.686-0.743 0.743-0.743h5.314z"></path>
            <path d="M14.914 2.914h1.429v26.171h-1.429v-26.171z"></path>
            <path d="M10.571 9.429l-0.971 1.029h-5.143l-0.857-0.857 0.743-0.743h5.714l0.514 0.571zM11.486 17.143v4.571l-0.857 0.8-0.743-0.743v-4.229l0.971-0.971 0.629 0.571zM9.943 14.971v-4.229l0.914-1.029 0.629 0.571v5.086l-0.571 0.571-0.971-0.971z"></path></svg>