<svg xmlns="http://www.w3.org/2000/svg" xmlns:xlink="http://www.w3.org/1999/xlink" viewBox="0 0 24 24" data-source-page="player"><path d="M20.633 11.293c-0.245 0-0.445-0.199-0.445-0.445v0c0-4.559-3.696-8.255-8.255-8.255s-8.255 3.696-8.255 8.255v0c-0.050 0.195-0.224 0.337-0.431 0.337s-0.381-0.142-0.43-0.334l-0.001-0.003c0-5.033 4.080-9.113 9.113-9.113s9.113 4.080 9.113 9.113v0c0 0.001 0 0.001 0 0.002 0 0.233-0.179 0.425-0.407 0.443h-0.001z"></path>
            <path d="M20.322 12.196l-0.889-0.111c-0.831-0.089-1.467 0.337-1.556 1.067l-0.969 7.517c-0.012 0.065-0.019 0.14-0.019 0.217 0 0.293 0.099 0.563 0.265 0.778l-0.002-0.003c0.274 0.299 0.663 0.488 1.097 0.498h0.001l0.293 0.027c0.387 0.035 0.782 0.076 1.174 0.076 0.009 0 0.019 0 0.029 0 0.165 0 0.329-0.008 0.489-0.024l-0.020 0.002c1.778-0.178 3.169-1.387 3.374-2.948q0.205-1.564 0.387-3.112v0c0.24-1.942-1.373-3.694-3.654-3.983z"></path>
            <path d="M7.129 20.669l-0.951-7.517c-0.089-0.734-0.715-1.16-1.556-1.067l-0.889 0.111c-2.298 0.289-3.912 2.041-3.716 3.97v0q0.182 1.564 0.387 3.112c0.205 1.556 1.591 2.77 3.374 2.948 0.15 0.021 0.328 0.035 0.509 0.040h0.006c0.395 0 0.791-0.040 1.174-0.076l0.293-0.027c0.437-0.009 0.828-0.2 1.101-0.501l0.002-0.002c0.175-0.216 0.282-0.494 0.282-0.797 0-0.069-0.005-0.136-0.016-0.202l0.001 0.008z"></path></svg>