<svg xmlns="http://www.w3.org/2000/svg" xmlns:xlink="http://www.w3.org/1999/xlink" viewBox="0 0 24 24" data-source-page="player"><path d="M14.591 1.036c-0.699-0.699-1.616-1.037-2.532-1.037s-1.833 0.338-2.532 1.037l-8.465 8.465c-0.699 0.699-1.061 1.616-1.061 2.532s0.362 1.833 1.061 2.532l8.465 8.465c0.699 0.699 1.616 1.061 2.532 1.061s1.833-0.362 2.532-1.061l8.465-8.465c0.699-0.699 1.061-1.616 1.061-2.532s-0.362-1.833-1.061-2.532zM13.988 22.428c-0.506 0.506-1.206 0.796-1.929 0.796s-1.423-0.289-1.929-0.796l-8.465-8.465c-0.506-0.506-0.82-1.206-0.82-1.929s0.314-1.399 0.82-1.929l8.465-8.465c0.506-0.506 1.206-0.796 1.929-0.796s1.423 0.289 1.929 0.796l8.465 8.465c0.506 0.531 0.796 1.206 0.796 1.929s-0.289 1.423-0.796 1.929zM9.695 6.993c0 0.724 0.41 2.605 1.278 6.777h2.195c0.941-4.293 1.254-6.054 1.254-6.777 0-1.326-1.061-2.388-2.364-2.388s-2.364 1.061-2.364 2.388zM11.673 12.902l-0.193-0.965c-0.603-2.846-0.941-4.414-0.941-4.944 0-0.844 0.675-1.519 1.519-1.519s1.519 0.675 1.519 1.519c0 0.675-0.41 2.677-1.109 5.909zM10.346 17.098c0 0.941 0.772 1.712 1.712 1.712s1.712-0.772 1.712-1.712c0-0.965-0.772-1.736-1.712-1.736s-1.712 0.772-1.712 1.736zM11.191 17.098c0-0.482 0.386-0.868 0.868-0.868s0.868 0.386 0.868 0.868c0 0.458-0.386 0.844-0.868 0.844s-0.868-0.386-0.868-0.844z"></path></svg>