<svg xmlns="http://www.w3.org/2000/svg" xmlns:xlink="http://www.w3.org/1999/xlink" viewBox="0 0 24 24" data-source-page="player"><path d="M12.058 0.162c-6.553 0-11.871 5.294-11.871 11.847s5.319 11.871 11.871 11.871c6.553 0 11.871-5.319 11.871-11.871s-5.319-11.847-11.871-11.847zM12.058 4.388c1.638 0 2.968 1.329 2.968 2.968 0 0.617-0.427 3.585-0.475 3.847-0.214 1.211-1.282 2.089-2.493 2.089-1.258 0-2.327-0.902-2.516-2.137-0.047-0.261-0.45-3.157-0.45-3.799 0-1.638 1.329-2.968 2.968-2.968zM12.058 22.598c-3.585 0-6.742-1.757-8.666-4.488 0.356-0.57 0.926-1.020 1.567-1.187l6.481-1.401h1.211l6.481 1.401c0.665 0.167 1.234 0.617 1.567 1.187-1.923 2.73-5.081 4.488-8.643 4.488z"></path></svg>