<svg xmlns="http://www.w3.org/2000/svg" xmlns:xlink="http://www.w3.org/1999/xlink" viewBox="0 0 32 32" data-source-page="player"><path d="M3.923 4.664h-3.923l3.184 2.315-1.222 3.762 3.184-2.315 3.216 2.315-1.222-3.762 3.184-2.315h-3.955l-1.222-3.762zM12.605 6.015v1.736h19.519v-1.736zM3.923 14.987h-3.923l3.184 2.315-1.222 3.762 3.184-2.315 3.216 2.315-1.222-3.762 3.184-2.315h-3.955l-1.222-3.762zM12.605 18.074h19.519v-1.704h-19.519zM3.923 25.405h-3.923l3.184 2.315-1.222 3.73 3.184-2.315 3.216 2.315-1.222-3.73 3.184-2.315h-3.955l-1.222-3.762zM12.605 28.396h19.519v-1.704h-19.519z"></path></svg>