<svg xmlns="http://www.w3.org/2000/svg" xmlns:xlink="http://www.w3.org/1999/xlink" viewBox="0 0 32 32" data-source-page="player"><path d="M1.741 12.829c0 1.529 0.289 2.965 0.868 4.308s1.369 2.516 2.371 3.518c1.002 1.002 2.175 1.802 3.517 2.402 1.364 0.578 2.81 0.867 4.339 0.867s2.965-0.289 4.308-0.867c1.343-0.6 2.515-1.4 3.517-2.402s1.803-2.175 2.402-3.518c0.578-1.343 0.867-2.779 0.867-4.308s-0.289-2.986-0.867-4.37c-0.599-1.363-1.4-2.557-2.402-3.579s-2.175-1.834-3.517-2.433c-1.343-0.62-2.779-0.93-4.308-0.93s-2.975 0.31-4.339 0.93c-1.343 0.599-2.515 1.41-3.517 2.433s-1.792 2.216-2.371 3.579c-0.579 1.384-0.868 2.841-0.868 4.37zM31.771 29.348c0.207 0.185 0.274 0.459 0.201 0.821s-0.253 0.687-0.542 0.976c-0.31 0.331-0.646 0.532-1.007 0.604s-0.645 0.005-0.852-0.201l-9.049-8.491c-1.074 0.806-2.262 1.436-3.564 1.89s-2.676 0.682-4.122 0.682c-1.777 0-3.44-0.331-4.99-0.992-1.549-0.682-2.908-1.601-4.075-2.758s-2.082-2.521-2.743-4.091c-0.682-1.549-1.023-3.203-1.023-4.959 0-1.777 0.341-3.44 1.023-4.99 0.661-1.57 1.575-2.934 2.743-4.091s2.526-2.077 4.075-2.758c1.549-0.661 3.213-0.992 4.99-0.992 1.756 0 3.419 0.331 4.99 0.992 1.55 0.681 2.903 1.601 4.060 2.758s2.077 2.521 2.758 4.091c0.661 1.549 0.992 3.213 0.992 4.99 0 1.529-0.253 2.98-0.759 4.354s-1.204 2.608-2.092 3.703l8.987 8.461z"></path></svg>