<svg xmlns="http://www.w3.org/2000/svg" xmlns:xlink="http://www.w3.org/1999/xlink" viewBox="0 0 24 24" data-source-page="player"><path d="M19.801 2.555h-6.029v-0.844c0-0.965-0.772-1.736-1.712-1.736s-1.712 0.772-1.712 1.736v0.844h-6.029c-0.724 0-1.302 0.579-1.302 1.302v18.932c0 0.724 0.579 1.302 1.302 1.302h15.484c0.724 0 1.302-0.579 1.302-1.302v-18.932c0-0.724-0.579-1.302-1.302-1.302zM11.191 1.712c0-0.482 0.385-0.868 0.869-0.868s0.869 0.386 0.869 0.868v0.845h-1.736zM15.942 3.424c0.217 0 0.41 0.193 0.41 0.434v0.868c0 0.217-0.193 0.41-0.41 0.41h-7.765c-0.217 0-0.434-0.193-0.434-0.41v-0.868c0-0.241 0.217-0.434 0.434-0.434zM20.235 22.79c0 0.241-0.193 0.434-0.434 0.434h-15.484c-0.242 0-0.434-0.193-0.434-0.434v-18.932c0-0.242 0.193-0.434 0.434-0.434h2.653c-0.048 0.145-0.072 0.289-0.072 0.434v0.869c0 0.7 0.579 1.278 1.278 1.278h7.766c0.7 0 1.278-0.579 1.278-1.278v-0.869c0-0.145-0.024-0.29-0.072-0.434h2.653c0.241 0 0.434 0.193 0.434 0.434zM15.073 11.599h3.448v-2.146h-3.448zM5.378 11.599h3.449v-2.146h-3.449zM10.346 10.949h3.425v-0.845h-3.424zM15.942 10.322h1.712v0.41h-1.712zM6.247 10.322h1.712v0.41h-1.712zM15.073 15.7h3.448v-2.17h-3.448zM5.378 15.7h3.449v-2.17h-3.449zM10.346 15.048h3.425v-0.869h-3.424zM15.942 14.397h1.712v0.434h-1.712zM6.247 14.397h1.712v0.434h-1.712zM15.073 19.993h3.448v-2.146h-3.448zM5.378 19.993h3.449v-2.146h-3.449zM10.346 19.341h3.425v-0.844h-3.424zM15.942 18.714h1.712v0.434h-1.712zM6.247 18.714h1.712v0.434h-1.712z"></path></svg>