<svg xmlns="http://www.w3.org/2000/svg" xmlns:xlink="http://www.w3.org/1999/xlink" viewBox="0 0 24 24" data-source-page="player"><path d="M1.929 24.068l5.161-8.61h9.912c2.846 0 5.161-2.315 5.161-5.161v-10.322h-15.074c-2.846 0-5.161 2.315-5.161 5.161zM16.569 8.995c-0.724 0-1.302-0.579-1.302-1.278 0-0.724 0.579-1.302 1.302-1.302s1.302 0.579 1.302 1.302c0 0.699-0.579 1.278-1.302 1.278zM7.525 8.995c-0.699 0-1.278-0.579-1.278-1.278 0-0.724 0.579-1.302 1.278-1.302 0.724 0 1.302 0.579 1.302 1.302 0 0.699-0.579 1.278-1.302 1.278zM12.276 8.995c-0.724 0-1.302-0.579-1.302-1.278 0-0.724 0.579-1.302 1.302-1.302 0.699 0 1.278 0.579 1.278 1.302 0 0.699-0.579 1.278-1.278 1.278z"></path></svg>