<svg xmlns="http://www.w3.org/2000/svg" xmlns:xlink="http://www.w3.org/1999/xlink" viewBox="0 0 24 24" data-source-page="player"><path d="M0 3.857v3.857h1.285v-2.571h21.429v13.715h-10.286v1.285h11.571v-16.285z"></path>
            <path d="M0 17.143v3h3c0-0.857-0.3-1.629-0.857-2.143s-1.285-0.857-2.143-0.857z"></path>
            <path d="M0 13.285v2.143c1.371 0 2.529 0.515 3.386 1.329 0.857 0.857 1.329 2.014 1.329 3.385h2.144c0-1.929-0.729-3.643-1.971-4.885-1.2-1.244-2.915-1.971-4.886-1.971z"></path>
            <path d="M0 9.429v2.144c2.444 0 4.585 0.9 6.129 2.443s2.443 3.685 2.443 6.129h2.144c0-2.957-1.2-5.657-3.129-7.585s-4.629-3.129-7.586-3.129z"></path>
            <path d="M3 6.856v1.244c2.229 0.514 4.244 1.671 5.786 3.257s2.7 3.556 3.257 5.786h8.956v-10.286h-18z"></path></svg>