<svg xmlns="http://www.w3.org/2000/svg" xmlns:xlink="http://www.w3.org/1999/xlink" viewBox="0 0 24 24" data-source-page="player"><path d="M12.107 2.662c2.653 0 5.137 1.182 6.825 3.256l0.988-0.796c-1.929-2.388-4.776-3.762-7.813-3.762s-5.885 1.374-7.814 3.762l1.013 0.796c1.688-2.075 4.147-3.256 6.801-3.256zM21.465 17.109c1.591-0.072 2.484-1.086 2.58-2.388 0.024-0.361 0.048-0.845 0.072-1.086l-1.302-0.072c0 0.242-0.024 0.723-0.048 1.061-0.048 0.627-0.579 1.134-1.374 1.182-2.027 0.12-3.956 0.12-5.813 0-0.916-0.048-1.519-0.603-1.567-1.544-0.072-1.423-0.096-3.183 0-4.606 0.072-0.964 0.651-1.495 1.567-1.543 1.857-0.12 3.786-0.12 5.667 0 0.941 0.048 1.495 0.457 1.52 1.134 0.024 0.337 0.048 0.796 0.048 1.037l1.302-0.048c-0.024-0.265-0.048-0.723-0.072-1.11-0.12-1.399-1.182-2.218-2.726-2.316-1.905-0.096-3.931-0.096-5.813 0-1.567 0.096-2.678 1.206-2.797 2.75-0.12 1.495-0.096 3.304 0 4.8 0.12 1.688 1.23 2.654 2.797 2.75 1.543 0.096 3.931 0.096 5.957 0zM8.127 17.085c1.495-0.096 2.46-1.182 2.46-2.436v-1.206c0-1.35-1.037-2.242-2.34-2.242h-5.885c-0.603 0-1.086-0.507-1.086-1.060v-0.796c0-0.675 0.457-1.206 1.254-1.254 1.953-0.12 3.57-0.12 5.523 0 0.868 0.048 1.158 0.507 1.206 1.037 0.024 0.17 0.024 0.555 0.048 0.772l1.278-0.072c0-0.217-0.024-0.603-0.048-0.82-0.096-1.23-0.869-2.099-2.412-2.195-2.002-0.12-3.666-0.12-5.667 0-1.326 0.072-2.436 1.158-2.436 2.436v1.012c0 1.206 1.013 2.219 2.34 2.219h5.885c0.531 0 1.060 0.361 1.060 1.061v1.013c0 0.627-0.434 1.206-1.254 1.254-1.953 0.12-3.57 0.12-5.499 0-0.772-0.048-1.158-0.483-1.23-0.989-0.048-0.29-0.048-0.675-0.048-0.917l-1.278 0.072c0 0.241 0.024 0.627 0.048 0.941 0.096 1.061 0.916 2.122 2.412 2.195 2.027 0.096 3.666 0.096 5.667-0.024zM19.27 18.918l-0.916-0.916c-1.663 1.713-3.884 2.654-6.246 2.654-2.388 0-4.63-0.965-6.319-2.726l-0.941 0.893c1.929 2.003 4.511 3.111 7.26 3.111 2.702 0 5.257-1.061 7.162-3.015z"></path></svg>