<svg xmlns="http://www.w3.org/2000/svg" xmlns:xlink="http://www.w3.org/1999/xlink" viewBox="0 0 24 24" data-source-page="player"><path d="M7.741 9.899c-0.699 0-1.278 0.579-1.278 1.278 0 0.723 0.579 1.302 1.278 1.302 0.723 0 1.302-0.579 1.302-1.302 0-0.699-0.579-1.278-1.302-1.278zM16.352 9.899c-0.723 0-1.302 0.579-1.302 1.278 0 0.723 0.579 1.302 1.302 1.302 0.699 0 1.278-0.579 1.278-1.302 0-0.699-0.579-1.278-1.278-1.278zM12.034 9.899c-0.699 0-1.278 0.579-1.278 1.278 0 0.723 0.579 1.302 1.278 1.302 0.723 0 1.302-0.579 1.302-1.302 0-0.699-0.579-1.278-1.302-1.278z"></path></svg>