<svg xmlns="http://www.w3.org/2000/svg" xmlns:xlink="http://www.w3.org/1999/xlink" viewBox="0 0 24 24" data-source-page="player"><path d="M14.527 1.188c-0.688-0.688-1.59-1.044-2.493-1.044s-1.805 0.356-2.493 1.044l-8.334 8.334c-0.688 0.688-1.020 1.59-1.020 2.493s0.332 1.804 1.020 2.493l8.334 8.334c0.688 0.688 1.59 1.044 2.493 1.044s1.804-0.356 2.493-1.044l8.334-8.334c0.688-0.688 1.069-1.59 1.069-2.493s-0.38-1.804-1.069-2.493zM10.966 13.701c-0.855-4.083-1.282-5.936-1.282-6.672 0-1.282 1.044-2.327 2.351-2.327 1.282 0 2.327 1.044 2.327 2.327 0 0.735-0.332 2.469-1.235 6.672zM10.324 16.978c0-0.926 0.76-1.686 1.71-1.686 0.926 0 1.686 0.76 1.686 1.686 0 0.949-0.76 1.71-1.686 1.71-0.949 0-1.71-0.76-1.71-1.71z"></path></svg>