<svg xmlns="http://www.w3.org/2000/svg" xmlns:xlink="http://www.w3.org/1999/xlink" viewBox="0 0 24 24" data-source-page="player"><path d="M13.714 4.714h-10.286c-1.886 0-3.429 1.543-3.429 3.429v7.714c0 1.886 1.543 3.429 3.429 3.429h10.286c1.886 0 3.429-1.543 3.429-3.429v-7.714c0-1.886-1.543-3.429-3.429-3.429zM16.286 15.857c0 1.414-1.157 2.571-2.571 2.571h-10.286c-1.414 0-2.571-1.157-2.571-2.571v-7.714c0-1.414 1.157-2.571 2.571-2.571h10.286c1.414 0 2.571 1.157 2.571 2.571v7.714z"></path>
            <path d="M18.429 8.229v7.586l5.571 2.614v-12.857l-5.571 2.657zM23.143 17.057l-3.857-1.8v-6.514l3.857-1.843v10.157z"></path></svg>