<svg xmlns="http://www.w3.org/2000/svg" xmlns:xlink="http://www.w3.org/1999/xlink" viewBox="0 0 32 32" data-source-page="player"><path d="M6.496 9.163v-1.029h-1.125v-5.853h-1.093c-0.322 0.257-0.804 0.418-1.286 0.418v1.061c0.386 0 0.868-0.129 1.254-0.322v4.695h-1.286v1.029zM12.413 5.079v1.736h19.519v-1.736zM7.139 19.485v-1.029h-3.441c0.129-0.45 0.707-1.061 1.769-1.736 1.415-0.836 1.64-1.576 1.64-2.283 0-1.447-1.093-1.962-2.155-1.962-1.19 0-2.026 0.611-2.54 1.447l0.836 0.611c0.45-0.643 0.997-1.029 1.64-1.029 0.675 0 1.061 0.386 1.061 0.997 0 0.836-0.611 1.126-1.447 1.704-1.254 0.9-1.865 1.511-2.090 2.38-0.064 0.257-0.064 0.514-0.064 0.9zM12.413 17.138h19.519v-1.704h-19.519zM12.413 27.493h19.519v-1.736h-19.519zM4.759 29.808c1.479 0 2.508-0.643 2.508-2.026 0-0.9-0.418-1.544-1.447-1.736 0.804-0.257 1.254-0.804 1.254-1.608 0-1.125-0.836-1.736-2.219-1.736-0.997 0-1.801 0.386-2.38 0.965l0.675 0.74c0.45-0.45 1.029-0.675 1.608-0.675 0.804 0 1.19 0.322 1.19 0.868 0 0.482-0.322 0.997-1.704 0.997h-0.354v0.965h0.322c1.286 0 1.897 0.289 1.897 1.19 0 0.74-0.579 1.061-1.383 1.061-0.643 0-1.222-0.257-1.736-0.836l-0.804 0.643c0.579 0.772 1.447 1.19 2.573 1.19z"></path></svg>