<svg xmlns="http://www.w3.org/2000/svg" xmlns:xlink="http://www.w3.org/1999/xlink" viewBox="0 0 24 24" data-source-page="player"><path d="M23.143 0.856v22.285h-22.285v-22.285h22.285zM24 0h-24v24h24v-24z"></path>
            <path d="M13.629 9.986l4.671 8.871h-12.685l2.615-5.571 1.071 1.971 0.771 1.415 0.729-1.415 2.829-5.271zM13.629 8.143l-3.557 6.729-1.885-3.471-3.9 8.314h15.429l-6.086-11.571z"></path>
            <path d="M6.429 5.143c0.385 0 0.686 0.129 0.9 0.386 0.214 0.214 0.385 0.557 0.385 0.9s-0.129 0.686-0.385 0.9c-0.214 0.257-0.514 0.385-0.9 0.385s-0.686-0.129-0.9-0.385c-0.256-0.214-0.385-0.514-0.385-0.9s0.129-0.686 0.385-0.9c0.215-0.256 0.515-0.385 0.9-0.385zM6.429 4.286c-0.6 0-1.114 0.256-1.543 0.6-0.343 0.429-0.6 0.944-0.6 1.543s0.256 1.115 0.6 1.5c0.386 0.385 0.944 0.644 1.543 0.644s1.115-0.214 1.5-0.644c0.385-0.385 0.644-0.9 0.644-1.5s-0.214-1.114-0.644-1.5c-0.385-0.386-0.9-0.643-1.5-0.643v0 0z"></path></svg>