<svg xmlns="http://www.w3.org/2000/svg" xmlns:xlink="http://www.w3.org/1999/xlink" viewBox="0 0 24 24" data-source-page="player"><path d="M3.331 19.646l-1.467-0.985 5.006-8.24 1.467 0.985-5.006 8.24z"></path>
            <path d="M13.246 17.94l-4.909-7.714 1.493-0.946 4.909 7.714-1.493 0.946z"></path>
            <path d="M13.931 19.575l6.151-13.797 1.614 0.72-6.151 13.797-1.614-0.72z"></path>
            <path d="M5.47 19.575c0 1.51-1.224 2.735-2.735 2.735s-2.735-1.224-2.735-2.735c0-1.51 1.224-2.735 2.735-2.735s2.735 1.224 2.735 2.735z"></path>
            <path d="M11.576 9.594c0 1.51-1.224 2.735-2.735 2.735s-2.735-1.224-2.735-2.735c0-1.51 1.224-2.735 2.735-2.735s2.735 1.224 2.735 2.735z"></path>
            <path d="M17.682 19.646c0 1.51-1.224 2.735-2.735 2.735s-2.735-1.224-2.735-2.735c0-1.51 1.224-2.735 2.735-2.735s2.735 1.224 2.735 2.735z"></path>
            <path d="M24 4.354c0 1.51-1.224 2.735-2.735 2.735s-2.735-1.224-2.735-2.735c0-1.51 1.224-2.735 2.735-2.735s2.735 1.224 2.735 2.735z"></path></svg>