<svg xmlns="http://www.w3.org/2000/svg" xmlns:xlink="http://www.w3.org/1999/xlink" viewBox="0 0 24 24" data-source-page="player"><path d="M21 4.371h-18c-0.815 0-1.585 0.343-2.143 0.857s-0.856 1.285-0.856 2.143v9c0 0.857 0.344 1.585 0.856 2.143s1.285 0.857 2.143 0.857h18c0.857 0 1.585-0.343 2.143-0.857 0.557-0.556 0.857-1.285 0.857-2.143v-9c0-0.815-0.343-1.585-0.857-2.1-0.556-0.556-1.285-0.9-2.143-0.9zM10.671 14.657c-0.256 0.215-0.6 0.429-0.944 0.514-0.386 0.129-0.771 0.171-1.243 0.171-0.257 0-0.514 0-0.729-0.085-0.215-0.044-0.429-0.086-0.644-0.171s-0.385-0.171-0.6-0.3c-0.171-0.129-0.343-0.256-0.471-0.386-0.171-0.171-0.256-0.3-0.386-0.471s-0.214-0.386-0.3-0.6-0.129-0.429-0.171-0.686c-0.043-0.215-0.043-0.429-0.043-0.685s0.043-0.514 0.043-0.729c0.043-0.214 0.086-0.471 0.171-0.685s0.171-0.429 0.256-0.6c0.129-0.214 0.256-0.385 0.386-0.556 0.171-0.171 0.3-0.3 0.471-0.429s0.385-0.214 0.6-0.344c0.215-0.085 0.429-0.171 0.686-0.214s0.514-0.043 0.771-0.043c0.171 0 0.386 0 0.6 0.043 0.171 0.043 0.385 0.085 0.6 0.129s0.386 0.129 0.514 0.214c0.171 0.085 0.3 0.171 0.471 0.257s0.257 0.214 0.386 0.343c0.129 0.129 0.214 0.257 0.3 0.429s0.171 0.344 0.215 0.514 0.085 0.385 0.085 0.6h-1.843c-0.044-0.385-0.215-0.685-0.429-0.856-0.214-0.215-0.514-0.3-0.943-0.3-0.171 0-0.3 0.043-0.386 0.043s-0.214 0.086-0.344 0.171-0.214 0.129-0.256 0.214-0.129 0.171-0.215 0.3-0.129 0.215-0.171 0.344c-0.043 0.129-0.086 0.214-0.086 0.344s-0.043 0.256-0.043 0.385c0 0.129-0.043 0.257-0.043 0.386s0 0.257 0.043 0.386 0.043 0.256 0.043 0.385 0.043 0.256 0.086 0.343c0.043 0.129 0.086 0.215 0.171 0.343s0.129 0.215 0.215 0.3c0.086 0.085 0.171 0.171 0.256 0.215s0.215 0.129 0.344 0.171 0.257 0.044 0.386 0.044c0.214 0 0.429-0.044 0.6-0.086 0.171-0.086 0.3-0.171 0.429-0.3 0.085-0.129 0.214-0.256 0.256-0.429s0.129-0.343 0.171-0.557h1.757c-0.043 0.385-0.171 0.771-0.344 1.115-0.171 0.3-0.429 0.6-0.685 0.814zM18.044 14.657c-0.3 0.215-0.6 0.429-0.944 0.514-0.386 0.129-0.814 0.171-1.244 0.171-0.256 0-0.515 0-0.729-0.085-0.215-0.044-0.429-0.086-0.643-0.171s-0.429-0.171-0.6-0.3-0.343-0.256-0.471-0.386c-0.171-0.171-0.3-0.3-0.385-0.471-0.129-0.171-0.215-0.386-0.3-0.6s-0.171-0.429-0.215-0.643-0.043-0.471-0.043-0.729 0-0.514 0.043-0.729c0.043-0.215 0.085-0.471 0.171-0.686s0.171-0.429 0.256-0.6c0.129-0.214 0.256-0.386 0.385-0.556 0.171-0.171 0.3-0.3 0.471-0.429s0.386-0.214 0.6-0.343c0.215-0.086 0.429-0.171 0.686-0.215s0.514-0.043 0.771-0.043c0.214 0 0.385 0 0.557 0.043 0.215 0.044 0.385 0.086 0.6 0.129s0.386 0.129 0.515 0.214c0.171 0.086 0.3 0.171 0.471 0.257s0.3 0.214 0.386 0.344c0.129 0.129 0.215 0.257 0.3 0.429s0.171 0.344 0.215 0.514 0.086 0.386 0.086 0.6h-1.8c-0.085-0.386-0.215-0.686-0.429-0.857-0.215-0.214-0.515-0.3-0.944-0.3-0.171 0-0.3 0-0.386 0.044-0.129 0.043-0.215 0.085-0.343 0.171s-0.215 0.129-0.256 0.214c-0.085 0.086-0.129 0.171-0.215 0.3s-0.129 0.214-0.171 0.344c-0.044 0.129-0.086 0.214-0.086 0.343s-0.043 0.257-0.043 0.386c0 0.129-0.043 0.256-0.043 0.385s0 0.257 0.043 0.386c0 0.129 0.043 0.215 0.043 0.385 0 0.129 0.043 0.256 0.086 0.343 0.043 0.129 0.085 0.215 0.171 0.343s0.129 0.215 0.215 0.3c0.086 0.085 0.171 0.171 0.256 0.215s0.215 0.129 0.343 0.171c0.129 0.043 0.256 0.043 0.386 0.043 0.215 0 0.429-0.043 0.556-0.085 0.171-0.086 0.343-0.171 0.471-0.3 0.085-0.129 0.215-0.256 0.3-0.429s0.129-0.343 0.129-0.556h1.715c-0.043 0.385-0.129 0.771-0.3 1.114-0.129 0.3-0.343 0.6-0.643 0.814z"></path></svg>